<svg width="80" height="80" viewBox="0 0 80 80" fill="none" xmlns="http://www.w3.org/2000/svg">
<g id="_Intel logo, Boxed=true, Style=white-2c" clip-path="url(#clip0_11461_2904)">
<g id="Group">
<path id="Vector" d="M0 0V80H80V0H0Z" fill="white"/>
<path id="Vector_2" d="M16.8778 27.4666H12.6667V31.6777H16.8778V27.4666Z" fill="#0054AE"/>
<path id="Vector_3" d="M16.7778 49.3889V34.2334H12.7778V49.3889H16.7778ZM43.2333 49.5445V45.8334C42.6444 45.8334 42.1556 45.8 41.7889 45.7445C41.3778 45.6778 41.0667 45.5445 40.8556 45.3334C40.6444 45.1222 40.5 44.8222 40.4444 44.4222C40.3778 44.0445 40.3555 43.5556 40.3555 42.9556V37.6556H43.2444V34.2445H40.3555V28.3334H36.3667V42.9778C36.3667 44.2111 36.4778 45.2667 36.6889 46.1C36.9 46.9334 37.2556 47.6 37.7556 48.1111C38.2556 48.6222 38.9111 48.9889 39.7 49.2C40.5 49.4222 41.5333 49.5334 42.7444 49.5334H43.2333V49.5445ZM66.1111 49.3889V27.1667H62.1222V49.3889H66.1111ZM32.5 35.7222C31.3889 34.5334 29.8333 33.9222 27.8555 33.9222C26.9 33.9222 26.0222 34.1222 25.2333 34.5C24.4444 34.8889 23.7778 35.4334 23.2444 36.1222L23.0222 36.4V36.1445V34.2222H19.0889V49.3778H23.0555V41.3V41.8556C23.0555 41.7667 23.0555 41.6667 23.0555 41.5778C23.1 40.1667 23.4556 39.1 24.1111 38.4334C24.8111 37.7222 25.6667 37.3556 26.6444 37.3556C27.8 37.3556 28.6778 37.7111 29.2556 38.4C29.8222 39.0778 30.1222 40.0556 30.1222 41.3V41.3334C30.1222 41.3334 30.1222 41.3334 30.1222 41.3445V49.3556H34.1556V40.7556C34.1778 38.6222 33.6111 36.9222 32.5 35.7222ZM60.0444 41.7778C60.0444 40.6889 59.8556 39.6556 59.4667 38.7111C59.0889 37.7667 58.5444 36.9222 57.8555 36.2111C57.1778 35.5 56.3444 34.9334 55.3889 34.5334C54.4333 34.1334 53.3667 33.9222 52.2222 33.9222C51.1333 33.9222 50.1 34.1334 49.1444 34.5445C48.1889 34.9556 47.3444 35.5222 46.6444 36.2334C45.9444 36.9334 45.3778 37.7778 44.9556 38.7334C44.5444 39.6889 44.3333 40.7222 44.3333 41.8111C44.3333 42.9 44.5333 43.9334 44.9222 44.8889C45.3111 45.8445 45.8667 46.6889 46.5556 47.3889C47.2444 48.0889 48.1 48.6556 49.0889 49.0667C50.0778 49.4778 51.1667 49.6889 52.3333 49.6889C55.7111 49.6889 57.8222 48.1556 59.0778 46.7111L56.2 44.5222C55.5889 45.2445 54.1556 46.2111 52.3667 46.2111C51.2444 46.2111 50.3111 45.9556 49.6111 45.4334C48.9111 44.9222 48.4222 44.2111 48.1667 43.3334L48.1222 43.1889H60.0333V41.7778H60.0444ZM48.1667 40.3889C48.1667 39.2778 49.4444 37.3445 52.1889 37.3445C54.9333 37.3445 56.2111 39.2778 56.2111 40.3889H48.1667Z" fill="#262626"/>
<path id="Vector_4" d="M70.6667 47.4778C70.5889 47.3 70.4778 47.1444 70.3445 47.0111C70.2112 46.8778 70.0556 46.7667 69.8778 46.6889C69.7 46.6111 69.5112 46.5667 69.3 46.5667C69.1 46.5667 68.9 46.6111 68.7223 46.6889C68.5445 46.7667 68.3889 46.8778 68.2556 47.0111C68.1223 47.1444 68.0112 47.3 67.9334 47.4778C67.8556 47.6555 67.8112 47.8444 67.8112 48.0555C67.8112 48.2555 67.8556 48.4555 67.9334 48.6333C68.0112 48.8111 68.1223 48.9666 68.2556 49.1C68.3889 49.2333 68.5445 49.3444 68.7223 49.4222C68.9 49.5 69.0889 49.5444 69.3 49.5444C69.5 49.5444 69.7 49.5 69.8778 49.4222C70.0556 49.3444 70.2112 49.2333 70.3445 49.1C70.4778 48.9666 70.5889 48.8111 70.6667 48.6333C70.7445 48.4555 70.7889 48.2666 70.7889 48.0555C70.7778 47.8444 70.7445 47.6555 70.6667 47.4778ZM70.4223 48.5222C70.3556 48.6666 70.2667 48.8 70.1667 48.9111C70.0556 49.0222 69.9223 49.1111 69.7778 49.1666C69.6334 49.2333 69.4667 49.2666 69.3 49.2666C69.1334 49.2666 68.9778 49.2333 68.8223 49.1666C68.6778 49.1 68.5445 49.0111 68.4334 48.9111C68.3223 48.8 68.2334 48.6666 68.1778 48.5222C68.1112 48.3778 68.0778 48.2111 68.0778 48.0444C68.0778 47.8778 68.1112 47.7222 68.1778 47.5667C68.2445 47.4222 68.3334 47.2889 68.4334 47.1778C68.5445 47.0666 68.6778 46.9778 68.8223 46.9222C68.9667 46.8555 69.1334 46.8222 69.3 46.8222C69.4667 46.8222 69.6223 46.8555 69.7778 46.9222C69.9223 46.9889 70.0556 47.0778 70.1667 47.1778C70.2778 47.2778 70.3667 47.4222 70.4223 47.5667C70.4889 47.7111 70.5223 47.8778 70.5223 48.0444C70.5223 48.2111 70.4889 48.3778 70.4223 48.5222ZM69.5778 48.1778C69.6889 48.1666 69.7889 48.1222 69.8667 48.0444C69.9445 47.9667 69.9778 47.8555 69.9778 47.7111C69.9778 47.5444 69.9334 47.4222 69.8334 47.3333C69.7334 47.2444 69.5889 47.2 69.3778 47.2H68.7223V48.8889H69.0334V48.2H69.2556L69.6889 48.8889H70.0112L69.5778 48.1778ZM69.4112 47.9333C69.3667 47.9333 69.3112 47.9444 69.2667 47.9444H69.0445V47.4667H69.2667C69.3112 47.4667 69.3667 47.4667 69.4112 47.4667C69.4556 47.4667 69.5 47.4778 69.5445 47.5C69.5778 47.5111 69.6112 47.5444 69.6334 47.5667C69.6556 47.6 69.6667 47.6444 69.6667 47.7C69.6667 47.7555 69.6556 47.8 69.6334 47.8333C69.6112 47.8666 69.5778 47.8889 69.5445 47.9C69.5 47.9111 69.4556 47.9222 69.4112 47.9333Z" fill="#262626"/>
</g>
</g>
<defs>
<clipPath id="clip0_11461_2904">
<rect width="80" height="80" fill="white"/>
</clipPath>
</defs>
</svg>
