<svg width="93" height="37" viewBox="0 0 93 37" fill="none" xmlns="http://www.w3.org/2000/svg">
<path d="M3.81833 32.2738L1.89001 36.6647H0L6.52564 22.1001H8.28795L14.7944 36.6647H12.8853L10.9314 32.2738H3.81195H3.81833ZM7.36848 24.2449L4.53347 30.6921H10.2418L7.36848 24.2449Z" fill="#040E35"/>
<path d="M16.4227 36.6647V22.1001H18.2297V36.6647H16.4227Z" fill="#040E35"/>
<path d="M26.3325 29.3634C26.3325 31.097 26.8561 32.5332 27.9096 33.6784C28.9568 34.8235 30.2721 35.393 31.8556 35.393C32.922 35.393 33.8542 35.1525 34.6587 34.6654C35.4633 34.1782 36.1529 33.4506 36.7275 32.4826L38.1131 33.2734C37.481 34.4629 36.6254 35.3866 35.5399 36.032C34.4544 36.6773 33.2157 37 31.8109 37C29.6847 37 27.9288 36.2851 26.5496 34.8552C25.1704 33.4253 24.4808 31.6094 24.4808 29.4077C24.4808 27.2059 25.1959 25.4343 26.6326 23.9665C28.0692 22.505 29.8571 21.771 31.9961 21.771C33.3562 21.771 34.5566 22.0874 35.5973 22.7201C36.6381 23.3528 37.4554 24.2512 38.0429 25.4154L36.5934 26.2695C36.0443 25.2825 35.3994 24.5549 34.6396 24.0867C33.8861 23.6122 32.9858 23.3781 31.9514 23.3781C30.3424 23.3781 29.0015 23.9475 27.9288 25.0864C26.8561 26.2252 26.3261 27.6551 26.3261 29.3697L26.3325 29.3634Z" fill="#040E35"/>
<path d="M39.786 22.1001H41.51V36.6647H39.786V22.1001Z" fill="#040E35"/>
<path d="M53.9419 31.6474C53.9419 33.1596 53.4311 34.425 52.4095 35.4436C51.3879 36.4622 50.13 36.9747 48.6295 36.9747C47.129 36.9747 45.8838 36.4686 44.8814 35.4562C43.8789 34.4439 43.3809 33.1849 43.3809 31.6727C43.3809 30.1606 43.8917 28.8952 44.9133 27.8766C45.9349 26.8579 47.1928 26.3454 48.6933 26.3454C50.1938 26.3454 51.4389 26.8516 52.4414 27.8639C53.4439 28.8762 53.9419 30.1416 53.9419 31.6474ZM45.124 31.6727C45.124 32.7546 45.4624 33.6657 46.1392 34.3996C46.8161 35.1336 47.6589 35.5005 48.6678 35.5005C49.6766 35.5005 50.5003 35.1336 51.1772 34.3996C51.854 33.6657 52.1924 32.7483 52.1924 31.6537C52.1924 30.5592 51.8476 29.6797 51.1644 28.9395C50.4812 28.1992 49.6383 27.8259 48.6486 27.8259C47.6589 27.8259 46.8161 28.1929 46.1392 28.9268C45.4624 29.6608 45.124 30.5782 45.124 31.6727Z" fill="#040E35"/>
<path d="M65.1415 36.6647H63.4431V35.1273C63.0344 35.7093 62.5236 36.1522 61.9106 36.4496C61.2913 36.747 60.5953 36.8988 59.8099 36.8988C58.4818 36.8988 57.4346 36.4686 56.6684 35.6081C55.9086 34.7476 55.5255 33.5771 55.5255 32.0903V26.6175H57.2494V31.9828C57.2494 33.0394 57.5112 33.8682 58.0348 34.4819C58.5584 35.0893 59.2927 35.3993 60.2313 35.3993C61.1699 35.3993 61.9553 35.0766 62.5427 34.4186C63.1302 33.767 63.4239 32.9191 63.4239 31.8815V26.6175H65.1479V36.6647H65.1415Z" fill="#040E35"/>
<path d="M75.6196 22.1001H77.3436V36.6647H75.6451V35.045C75.1854 35.6271 74.6299 36.0763 73.9786 36.399C73.3273 36.7153 72.6313 36.8798 71.8907 36.8798C70.4795 36.8798 69.2919 36.3927 68.3341 35.412C67.3763 34.4313 66.8975 33.1912 66.8975 31.6791C66.8975 30.1669 67.3891 28.8889 68.3788 27.8829C69.3685 26.8769 70.5817 26.3771 72.0184 26.3771C72.7207 26.3771 73.3784 26.5226 74.0042 26.801C74.6299 27.0857 75.1726 27.4906 75.6324 28.0158V22.1064L75.6196 22.1001ZM72.0694 35.393C73.0911 35.393 73.9467 35.026 74.6427 34.2984C75.3323 33.5708 75.6834 32.6724 75.6834 31.6032C75.6834 30.5339 75.345 29.6291 74.6746 28.9205C74.0041 28.2119 73.1613 27.8576 72.1588 27.8576C71.1564 27.8576 70.2752 28.2056 69.6175 28.8952C68.9599 29.5912 68.6278 30.4959 68.6278 31.6221C68.6278 32.7483 68.9471 33.6531 69.592 34.3491C70.2369 35.045 71.0606 35.3867 72.0694 35.3867V35.393Z" fill="#040E35"/>
<path d="M3.42247 2.51813H0.734314V0H3.42247V2.51813ZM3.33308 4.28335V14.5583H0.817319V4.28335H3.33308Z" fill="#040E35"/>
<path d="M7.77717 5.52979C8.55616 4.57442 9.68633 4.0303 11.1549 4.0303C13.9708 4.0303 15.4585 5.90308 15.4585 8.77552V14.5584H12.9428V9.00329C12.9428 7.3393 12.1063 6.19412 10.4845 6.19412C8.86265 6.19412 7.86018 7.42155 7.86018 9.1235V14.552H5.34442V4.28338H7.77717V5.52979Z" fill="#040E35"/>
<path d="M17.2974 1.37292H19.8132V4.28332H22.1438V6.46612H19.8132V11.0658C19.8132 12.0402 20.2538 12.3755 21.0519 12.3755H22.1438V14.5583H20.656C18.3063 14.5583 17.2974 13.6219 17.2974 11.3126V1.37292Z" fill="#040E35"/>
<path d="M31.7279 11.3948L33.0496 12.8121C31.9386 14.1218 30.3423 14.8936 28.4076 14.8936C25.132 14.8936 22.8653 12.7108 22.8653 9.44614C22.8653 6.36491 25.1767 3.99863 28.2799 3.99863C31.3831 3.99863 33.42 6.14347 33.42 9.34491C33.42 9.69921 33.3753 10.0282 33.337 10.2813H25.4449C25.7386 11.9453 27.0412 12.8627 28.6375 12.8627C29.7293 12.8627 30.8212 12.4072 31.7215 11.4075L31.7279 11.3948ZM25.4513 8.52873H30.9298C30.6999 6.92801 29.6719 5.99162 28.2863 5.99162C26.9007 5.99162 25.7642 6.86474 25.4513 8.52873Z" fill="#040E35"/>
<path d="M37.5256 14.5583H35.0098V0H37.5256V14.5583Z" fill="#040E35"/>
<path d="M41.4972 10.0345C42.9658 10.0345 44.0704 11.0722 44.0704 12.4704C44.0704 13.8687 42.953 14.9063 41.4972 14.9063C40.0414 14.9063 38.924 13.856 38.924 12.4831C38.924 11.1101 40.0414 10.0345 41.4972 10.0345ZM43.6234 12.4768C43.6234 11.3252 42.6976 10.4521 41.4972 10.4521C40.2968 10.4521 39.3837 11.3126 39.3837 12.4704C39.3837 13.6283 40.3095 14.495 41.4972 14.495C42.6848 14.495 43.6234 13.6346 43.6234 12.4768ZM40.5586 13.6536V11.2873H41.7206C42.3209 11.2873 42.6593 11.5783 42.6593 12.0339C42.6593 12.3692 42.4613 12.6159 42.1165 12.7298L42.6657 13.6472H41.9824L41.5227 12.8311H41.1332V13.6472H40.5458L40.5586 13.6536ZM41.146 11.8124V12.3122H41.7079C41.9186 12.3122 42.0463 12.2047 42.0463 12.0528C42.0463 11.901 41.9314 11.8061 41.7143 11.8061H41.1396L41.146 11.8124Z" fill="#040E35"/>
<path d="M47.1289 1.37292H49.6447V4.28332H51.9753V6.46612H49.6447V11.0658C49.6447 12.0402 50.0852 12.3755 50.8834 12.3755H51.9753V14.5583H50.4875C48.1378 14.5583 47.1289 13.6219 47.1289 11.3126V1.37292Z" fill="#040E35"/>
<path d="M56.1065 2.51813H53.4183V0H56.1065V2.51813ZM56.0235 4.28335V14.5583H53.5077V4.28335H56.0235Z" fill="#040E35"/>
<path d="M58.0348 0H60.5505V5.40955C61.4509 4.53643 62.6066 4.05558 63.9283 4.05558C66.6995 4.05558 69.03 6.11184 69.03 9.38288C69.03 12.6539 66.6165 14.8114 63.8453 14.8114C62.6066 14.8114 61.387 14.3559 60.4675 13.3752V14.5583H58.0348V0ZM63.4941 12.6666C65.2181 12.6666 66.4951 11.4391 66.4951 9.42084C66.4951 7.40254 65.2117 6.17511 63.5388 6.17511C61.8659 6.17511 60.4739 7.56704 60.4739 9.43982C60.4739 11.3126 61.8148 12.6666 63.4941 12.6666Z" fill="#040E35"/>
<path d="M78.844 11.3948L80.1657 12.8121C79.0547 14.1218 77.4584 14.8936 75.5237 14.8936C72.2481 14.8936 69.9814 12.7108 69.9814 9.44614C69.9814 6.36491 72.2928 3.99863 75.396 3.99863C78.4992 3.99863 80.5361 6.14347 80.5361 9.34491C80.5361 9.69921 80.4914 10.0282 80.4531 10.2813H72.561C72.8547 11.9453 74.1573 12.8627 75.7536 12.8627C76.8454 12.8627 77.9373 12.4072 78.8376 11.4075L78.844 11.3948ZM72.5674 8.52873H78.0458C77.816 6.92801 76.788 5.99162 75.4024 5.99162C74.0168 5.99162 72.8803 6.86474 72.5674 8.52873Z" fill="#040E35"/>
<path d="M84.463 5.47282C85.0951 4.61868 86.0401 4.22641 87.3363 4.22641H88.3005V6.55473H87.1894C85.408 6.55473 84.546 7.38356 84.546 9.28165V14.5647H82.0302V4.28335H84.463V5.46649V5.47282Z" fill="#040E35"/>
<path d="M86.3722 11.5403H89.1625V12.1667H88.0962V14.5646H87.4193V12.1667H86.3658V11.5403H86.3722ZM92.9936 14.5583H92.3168V12.211L91.5314 13.7737H90.9823L90.1905 12.211V14.5583H89.5137V11.534H90.5545L91.2696 12.9576L91.972 11.534H93V14.5583H92.9936Z" fill="#040E35"/>
</svg>
