<?xml version="1.0" standalone="no"?>
<!DOCTYPE svg PUBLIC "-//W3C//DTD SVG 20010904//EN"
 "http://www.w3.org/TR/2001/REC-SVG-20010904/DTD/svg10.dtd">
<svg version="1.0" xmlns="http://www.w3.org/2000/svg"
 width="700.000000pt" height="700.000000pt" viewBox="0 0 700.000000 700.000000"
 preserveAspectRatio="xMidYMid meet">
<metadata>
Created by potrace 1.14, written by Peter Selinger 2001-2017
</metadata>
<g transform="translate(0.000000,700.000000) scale(0.100000,-0.100000)"
fill="#000000" stroke="none">
<path d="M0 3510 l0 -3490 3488 2 3487 3 3 3488 2 3487 -3490 0 -3490 0 0
-3490z m4905 1890 l-390 -390 -1422 0 -1423 0 0 390 0 390 1812 0 1813 0 -390
-390z m-1015 -2595 l0 -1565 -415 0 -415 0 0 1152 0 1153 412 412 c227 227
414 413 415 413 2 0 3 -704 3 -1565z"/>
</g>
</svg>
