<svg width="16" height="16" viewBox="0 0 16 16" fill="none" xmlns="http://www.w3.org/2000/svg">
<g clip-path="url(#clip0_5616_120039)">
<g clip-path="url(#clip1_5616_120039)">
<path d="M10.7859 6.5925L8.22056 5.06125C8.15203 5.02187 8.07495 5 7.99786 5C7.92505 5 7.85225 5.02187 7.78801 5.06125L5.21413 6.5925C5.08137 6.67125 5 6.81562 5 6.96875V10.0312C5 10.1887 5.08137 10.3331 5.21413 10.4075L7.78801 11.9388C7.85653 11.9781 7.92505 12 7.99786 12C8.07066 12 8.15203 11.9781 8.22056 11.9388L10.7859 10.4075C10.9186 10.3288 11 10.1844 11 10.0312V6.96875C11 6.81125 10.9186 6.67125 10.7859 6.5925ZM8.00642 5.945L9.72377 6.96875L8.00642 7.9925L6.2848 6.96875L8.00642 5.945ZM5.86081 7.73L7.57388 8.74937V10.8012L5.86081 9.78188V7.73ZM8.43041 10.8012V8.75375L10.1435 7.73V9.7775L8.43041 10.8012Z" fill="currentcolor"/>
<path d="M7.779 0.0514925C7.84775 0.0176178 7.92336 0 8 0C8.07664 0 8.15225 0.0176178 8.221 0.0514925L14.236 3.02149C14.3031 3.05458 14.3619 3.1023 14.4081 3.16114C14.4544 3.21999 14.4868 3.28845 14.503 3.36149L15.988 10.0375C16.004 10.1093 16.0039 10.1836 15.9878 10.2554C15.9717 10.3271 15.9401 10.3944 15.895 10.4525L11.733 15.8065C11.6862 15.8666 11.6263 15.9153 11.5578 15.9487C11.4894 15.9822 11.4142 15.9995 11.338 15.9995H4.662C4.58581 15.9995 4.51061 15.9822 4.44215 15.9487C4.37369 15.9153 4.31378 15.8666 4.267 15.8065L0.105 10.4525C0.0599453 10.3944 0.0282518 10.3271 0.0121772 10.2554C-0.00389746 10.1836 -0.00395783 10.1093 0.0120004 10.0375L1.497 3.36149C1.51323 3.28845 1.54565 3.21999 1.59186 3.16114C1.63807 3.1023 1.69689 3.05458 1.764 3.02149L7.779 0.0524925V0.0514925ZM2.422 3.81249L1.039 10.0245L4.907 14.9995H11.093L14.961 10.0245L13.578 3.81249L8 1.05749L2.422 3.81249Z" fill="currentcolor"/>
</g>
</g>
<defs>
<clipPath id="clip0_5616_120039">
<rect width="16" height="16" fill="white"/>
</clipPath>
<clipPath id="clip1_5616_120039">
<rect width="16" height="16" fill="white"/>
</clipPath>
</defs>
</svg>
