<svg width="16" height="13" viewBox="0 0 16 13" fill="none" xmlns="http://www.w3.org/2000/svg">
<path d="M-0.000366211 2.49915C-0.000366211 1.96871 0.210348 1.46 0.58542 1.08493C0.960493 0.709859 1.4692 0.499146 1.99963 0.499146H13.9996C14.5301 0.499146 15.0388 0.709859 15.4138 1.08493C15.7889 1.46 15.9996 1.96871 15.9996 2.49915V10.4991C15.9996 11.0296 15.7889 11.5383 15.4138 11.9134C15.0388 12.2884 14.5301 12.4991 13.9996 12.4991H1.99963C1.4692 12.4991 0.960493 12.2884 0.58542 11.9134C0.210348 11.5383 -0.000366211 11.0296 -0.000366211 10.4991V2.49915ZM1.99963 1.49915C1.73442 1.49915 1.48006 1.6045 1.29253 1.79204C1.10499 1.97958 0.999634 2.23393 0.999634 2.49915V2.71615L7.99963 6.91615L14.9996 2.71615V2.49915C14.9996 2.23393 14.8943 1.97958 14.7067 1.79204C14.5192 1.6045 14.2649 1.49915 13.9996 1.49915H1.99963ZM14.9996 3.88215L10.2916 6.70715L14.9996 9.60415V3.88215ZM14.9656 10.7581L9.32563 7.28715L7.99963 8.08215L6.67363 7.28715L1.03363 10.7571C1.09046 10.9699 1.21595 11.158 1.39062 11.2922C1.5653 11.4264 1.77938 11.4991 1.99963 11.4991H13.9996C14.2198 11.4992 14.4337 11.4266 14.6084 11.2926C14.7831 11.1586 14.9086 10.9708 14.9656 10.7581ZM0.999634 9.60415L5.70763 6.70715L0.999634 3.88215V9.60415Z" fill="currentcolor"/>
</svg>
