<svg width="16" height="17" viewBox="0 0 16 17" fill="none" xmlns="http://www.w3.org/2000/svg">
<path d="M7.99963 0.499146C3.57963 0.499146 -0.000366211 4.07915 -0.000366211 8.49915C-0.000366211 12.0391 2.28963 15.0291 5.46963 16.0891C5.86963 16.1591 6.01963 15.9191 6.01963 15.7091C6.01963 15.5191 6.00963 14.8891 6.00963 14.2191C3.99963 14.5891 3.47963 13.7291 3.31963 13.2791C3.22963 13.0491 2.83963 12.3391 2.49963 12.1491C2.21963 11.9991 1.81963 11.6291 2.48963 11.6191C3.11963 11.6091 3.56963 12.1991 3.71963 12.4391C4.43963 13.6491 5.58963 13.3091 6.04963 13.0991C6.11963 12.5791 6.32963 12.2291 6.55963 12.0291C4.77963 11.8291 2.91963 11.1391 2.91963 8.07915C2.91963 7.20915 3.22963 6.48915 3.73963 5.92915C3.65963 5.72915 3.37963 4.90915 3.81963 3.80915C3.81963 3.80915 4.48963 3.59915 6.01963 4.62915C6.65963 4.44915 7.33963 4.35915 8.01963 4.35915C8.69963 4.35915 9.37963 4.44915 10.0196 4.62915C11.5496 3.58915 12.2196 3.80915 12.2196 3.80915C12.6596 4.90915 12.3796 5.72915 12.2996 5.92915C12.8096 6.48915 13.1196 7.19915 13.1196 8.07915C13.1196 11.1491 11.2496 11.8291 9.46963 12.0291C9.75963 12.2791 10.0096 12.7591 10.0096 13.5091C10.0096 14.5791 9.99963 15.4391 9.99963 15.7091C9.99963 15.9191 10.1496 16.1691 10.5496 16.0891C12.1379 15.5531 13.518 14.5325 14.4957 13.1709C15.4733 11.8093 15.9994 10.1754 15.9996 8.49915C15.9996 4.07915 12.4196 0.499146 7.99963 0.499146Z" fill="currentcolor"/>
</svg>
