<svg width="16" height="17" viewBox="0 0 16 17" fill="none" xmlns="http://www.w3.org/2000/svg">
<path d="M15.5446 7.05719C15.6379 7.59414 15.6844 8.13819 15.6836 8.68319C15.6836 11.1172 14.8136 13.1752 13.2996 14.5682H13.3016C11.9776 15.7912 10.1576 16.4992 7.99963 16.4992C5.8779 16.4992 3.84307 15.6563 2.34278 14.156C0.842489 12.6557 -0.000366211 10.6209 -0.000366211 8.49919C-0.000366211 6.37745 0.842489 4.34262 2.34278 2.84233C3.84307 1.34204 5.8779 0.499185 7.99963 0.499185C9.98557 0.475927 11.9035 1.22202 13.3516 2.58119L11.0676 4.86519C10.242 4.07816 9.14013 3.64718 7.99963 3.66518C5.91263 3.66518 4.13963 5.07318 3.50763 6.96918C3.17254 7.96269 3.17254 9.03868 3.50763 10.0322H3.51063C4.14563 11.9252 5.91563 13.3332 8.00263 13.3332C9.08063 13.3332 10.0066 13.0572 10.7246 12.5692H10.7216C11.1385 12.293 11.4952 11.9352 11.77 11.5174C12.0448 11.0996 12.2321 10.6304 12.3206 10.1382H7.99963V7.05819H15.5446V7.05719Z" fill="currentcolor"/>
</svg>
