<svg id="Layer_1" data-name="Layer 1" xmlns="http://www.w3.org/2000/svg" viewBox="0 0 72 72"><defs><style>.cls-1{fill:#fff;}.cls-2{fill:#00c7fd;}.cls-3{fill:#0068b5;}</style></defs><path class="cls-1" d="M0,0V72H72V0Z"/><rect class="cls-2" x="11.4" y="24.72" width="3.79" height="3.79"/><path class="cls-3" d="M15.1,44.45V30.81H11.5V44.45Zm23.81.14V41.24a9,9,0,0,1-1.3-.08A1.29,1.29,0,0,1,36.39,40a9.3,9.3,0,0,1-.08-1.32V33.88h2.6V30.81h-2.6V25.5H32.72V38.68A11.77,11.77,0,0,0,33,41.49a3.93,3.93,0,0,0,1,1.81,3.85,3.85,0,0,0,1.76,1,10.49,10.49,0,0,0,2.74.3Zm20.59-.14v-20H55.91v20ZM29.25,32.15a5.44,5.44,0,0,0-4.18-1.62,5.23,5.23,0,0,0-2.35.53,5.17,5.17,0,0,0-1.79,1.45l-.19.26v-2H17.19V44.45h3.57V37.69c0-.09,0-.17,0-.25a4.1,4.1,0,0,1,.95-2.83,3.11,3.11,0,0,1,2.28-1,2.91,2.91,0,0,1,2.35,1,4,4,0,0,1,.78,2.61h0v0h0v7.21h3.63V36.71A6.48,6.48,0,0,0,29.25,32.15ZM54,37.6a7.44,7.44,0,0,0-.52-2.76,7,7,0,0,0-1.45-2.25,6.53,6.53,0,0,0-2.22-1.51A7.35,7.35,0,0,0,47,30.53a7,7,0,0,0-2.77.56,7.14,7.14,0,0,0-3.77,3.77,7,7,0,0,0-.56,2.77,7.3,7.3,0,0,0,.53,2.77,6.93,6.93,0,0,0,1.48,2.25,6.75,6.75,0,0,0,2.28,1.52,7.52,7.52,0,0,0,2.92.56,7.77,7.77,0,0,0,6.07-2.68l-2.59-2a4.72,4.72,0,0,1-3.45,1.52,4.11,4.11,0,0,1-2.48-.69,3.46,3.46,0,0,1-1.3-1.9l0-.12H54ZM43.35,36.35c0-1,1.15-2.74,3.62-2.74s3.62,1.74,3.62,2.74Z"/><path class="cls-3" d="M63.6,42.73a1.42,1.42,0,0,0-.71-.71,1.3,1.3,0,0,0-.52-.1,1.34,1.34,0,0,0-.52.1,1.37,1.37,0,0,0-.42.29,1.34,1.34,0,0,0-.28.42,1.36,1.36,0,0,0,.28,1.46,1.37,1.37,0,0,0,.94.39,1.31,1.31,0,0,0,.52-.11,1.34,1.34,0,0,0,.42-.28,1.3,1.3,0,0,0,.29-.43,1.25,1.25,0,0,0,.1-.51A1.27,1.27,0,0,0,63.6,42.73Zm-.22.94a1.25,1.25,0,0,1-.23.35,1.21,1.21,0,0,1-.35.24,1.26,1.26,0,0,1-.43.08,1.16,1.16,0,0,1-.42-.08,1.16,1.16,0,0,1-.59-.59,1.16,1.16,0,0,1-.08-.42,1.26,1.26,0,0,1,.08-.43,1.21,1.21,0,0,1,.24-.35,1.07,1.07,0,0,1,.35-.23,1,1,0,0,1,.42-.09,1.07,1.07,0,0,1,.43.09,1.18,1.18,0,0,1,.35.23,1.41,1.41,0,0,1,.23.35,1.07,1.07,0,0,1,.09.43A1,1,0,0,1,63.38,43.67Zm-.76-.31a.52.52,0,0,0,.26-.12.4.4,0,0,0,.1-.3.42.42,0,0,0-.13-.34.56.56,0,0,0-.4-.12h-.59V44h.28v-.62h.2l.38.62H63Zm-.15-.22h-.33v-.42h.33l.12,0a.27.27,0,0,1,.08.07.21.21,0,0,1,0,.12.16.16,0,0,1,0,.11.27.27,0,0,1-.08.07Z"/></svg>