<svg width="80" height="66" viewBox="0 0 80 66" fill="none" xmlns="http://www.w3.org/2000/svg">
<g id="Announcements">
<g id="g28">
<path id="path16" d="M38.5887 23.2932C38.1601 22.8943 37.503 22.9239 37.1173 23.3523L31.8748 29.2316C31.4891 29.6748 31.5177 30.3543 31.9319 30.7532C32.1319 30.9452 32.3891 31.0339 32.6319 31.0339C32.9176 31.0339 33.189 30.9157 33.4033 30.6793L38.6458 24.7999C39.0315 24.3568 39.0029 23.6772 38.5887 23.2784V23.2932Z" fill="#525252"/>
<path id="path18" d="M28.6033 32.9247L23.118 39.0848C22.7323 39.5279 22.7609 40.2075 23.1751 40.6063C23.3751 40.7984 23.6322 40.887 23.8751 40.887C24.1608 40.887 24.4322 40.7688 24.6464 40.5325L30.1318 34.3724C30.5175 33.9292 30.4889 33.2497 30.0747 32.8508C29.6461 32.452 28.989 32.4815 28.6033 32.9099V32.9247Z" fill="#525252"/>
<path id="path20" d="M43.9738 12.0218C43.2024 10.648 41.5026 10.1753 40.1741 10.973L37.76 12.4059C36.4315 13.2036 35.9744 14.9615 36.7457 16.3353L36.9314 16.6603L7.30483 49.9129C6.44775 48.864 4.97642 48.5686 3.79078 49.2777L1.39094 50.7106C0.748125 51.0947 0.291013 51.7151 0.091026 52.4537C-0.0946759 53.1923 0.00531787 53.9605 0.376722 54.6253L5.94778 64.5671C6.46203 65.4829 7.40483 66 8.36191 66C8.8333 66 9.31898 65.8818 9.74753 65.6159L12.1617 64.183C13.3473 63.4739 13.833 61.9967 13.3759 60.7262L20.2325 59.1308L20.5325 60.5342C20.9754 62.5285 22.6895 63.8875 24.6037 63.8875C24.9037 63.8875 25.2179 63.858 25.5179 63.7841L33.6602 61.8933C35.9029 61.3762 37.3171 59.057 36.8172 56.7525L36.5172 55.3491L56.073 50.7992L56.2587 51.1242C56.6301 51.789 57.2301 52.2617 57.9443 52.4537C58.1872 52.5128 58.43 52.5571 58.6729 52.5571C59.1585 52.5571 59.6299 52.4242 60.0585 52.1731L62.4583 50.7401C63.1011 50.3561 63.5582 49.7356 63.7582 48.997C63.9439 48.2584 63.8439 47.4902 63.4725 46.8255L43.9738 12.0366V12.0218ZM33.046 59.0865L24.9037 60.9774C24.1609 61.1546 23.4038 60.6672 23.2466 59.899L22.9467 58.4956L33.8031 55.9695L34.1031 57.3729C34.2745 58.1411 33.8031 58.9092 33.046 59.0865ZM10.7617 61.6864L8.34762 63.1194L2.77656 53.1776L5.19069 51.7447L5.37639 52.0696L10.576 61.3467L10.7617 61.6717V61.6864ZM11.9617 58.0968L10.6903 55.8366L8.80473 52.4685L38.3885 19.2603L47.645 35.7757L54.6017 48.1993L11.9617 58.1115V58.0968ZM58.6586 49.6765L41.3597 18.8023L39.1599 14.8876L41.574 13.4547L61.0727 48.2436L58.6586 49.6765Z" fill="#525252"/>
<path id="path22" d="M56.6301 26.2476C56.8872 26.7056 57.3586 26.9715 57.83 26.9715C58.0728 26.9715 58.3014 26.9124 58.5299 26.7794L72.4862 18.4626C73.1575 18.0637 73.3861 17.1922 73.0004 16.4979C72.6147 15.8183 71.7576 15.582 71.1005 15.9661L57.1586 24.2829C56.4872 24.6818 56.2587 25.5533 56.6444 26.2476H56.6301Z" fill="#525252"/>
<path id="path24" d="M51.9301 18.0933C52.1444 18.2262 52.3872 18.2853 52.63 18.2853C53.1157 18.2853 53.5728 18.0342 53.83 17.5615L61.8866 3.15844C62.2723 2.46414 62.0437 1.59257 61.3723 1.19371C60.7152 0.79486 59.8581 1.03122 59.4724 1.72552L51.4158 16.1286C51.0301 16.8081 51.2587 17.6944 51.9301 18.0933Z" fill="#525252"/>
<path id="path26" d="M78.6141 33.0872H62.5009C61.7295 33.0872 61.1152 33.7372 61.1152 34.5201C61.1152 35.3031 61.7438 35.9531 62.5009 35.9531H78.6141C79.3854 35.9531 79.9997 35.3031 79.9997 34.5201C79.9997 33.7372 79.3712 33.0872 78.6141 33.0872Z" fill="#525252"/>
</g>
</g>
</svg>
