<svg width="166" height="166" viewBox="0 0 166 166" fill="none" xmlns="http://www.w3.org/2000/svg">
<path d="M62.25 0C63.6258 0 64.9453 0.546539 65.9181 1.51938C66.891 2.49223 67.4375 3.81169 67.4375 5.1875V31.125H98.5625V5.1875C98.5625 3.81169 99.109 2.49223 100.082 1.51938C101.055 0.546539 102.374 0 103.75 0C105.126 0 106.445 0.546539 107.418 1.51938C108.391 2.49223 108.938 3.81169 108.938 5.1875V31.125H119.312C120.688 31.125 122.008 31.6715 122.981 32.6444C123.953 33.6172 124.5 34.9367 124.5 36.3125V67.4375C124.5 77.0682 120.674 86.3044 113.864 93.1143C107.054 99.9242 97.8182 103.75 88.1875 103.75C88.1667 108.253 88.0837 112.517 87.7725 116.408C87.3471 121.74 86.4652 126.814 84.4836 131.182C82.4746 135.801 78.915 139.573 74.4199 141.847C69.7719 144.212 64.0034 145.25 57.0625 145.25C46.7083 145.25 40.3587 148.674 36.5823 152.699C33.1726 156.3 31.227 161.042 31.125 166H20.75C20.75 159.609 23.157 151.817 29.0189 145.582C35.0052 139.232 44.2079 134.875 57.0625 134.875C63.0904 134.875 67.0433 133.962 69.6992 132.603C72.1996 131.327 73.8492 129.49 75.032 126.897C76.2874 124.137 77.0344 120.454 77.4182 115.588C77.6984 112.06 77.7814 108.139 77.8021 103.75C68.1732 103.747 58.9397 99.9203 52.132 93.1106C45.3243 86.301 41.5 77.0664 41.5 67.4375V36.3125C41.5 34.9367 42.0465 33.6172 43.0194 32.6444C43.9922 31.6715 45.3117 31.125 46.6875 31.125H57.0625V5.1875C57.0625 3.81169 57.609 2.49223 58.5819 1.51938C59.5547 0.546539 60.8742 0 62.25 0V0Z" fill="#326CE5"/>
</svg>
