<svg width="172" height="166" viewBox="0 0 172 166" fill="none" xmlns="http://www.w3.org/2000/svg">
<g clip-path="url(#clip0_13980_171555)">
<path d="M102.179 95.3747C101.941 95.3277 101.699 95.3092 101.457 95.3198C101.04 95.342 100.631 95.4482 100.255 95.632C99.526 95.984 98.9609 96.6038 98.6775 97.3622C98.3941 98.1206 98.4143 98.9591 98.7339 99.7029L98.7119 99.7341L105.907 117.117C112.791 112.724 118.015 106.163 120.752 98.4694L102.211 95.3359L102.179 95.3747ZM73.3289 97.8383C73.1729 97.1531 72.7915 96.54 72.2457 96.0972C71.6999 95.6545 71.0212 95.4078 70.3185 95.3966C70.1111 95.3941 69.9039 95.4124 69.7001 95.4515L69.6689 95.4135L51.2886 98.5335C54.0487 106.166 59.2506 112.675 66.0873 117.05L73.2099 99.8388L73.1543 99.7713C73.4173 99.1621 73.4785 98.4848 73.3289 97.8383ZM88.7224 104.588C88.4539 104.088 88.0547 103.669 87.5672 103.378C87.0796 103.087 86.5222 102.933 85.9543 102.934C85.3864 102.935 84.8293 103.09 84.3425 103.382C83.8557 103.674 83.4574 104.094 83.1902 104.595H83.175L74.1363 120.939C80.6081 123.142 87.5656 123.5 94.2293 121.973C95.4651 121.691 96.6721 121.354 97.8505 120.961L88.7907 104.587L88.7224 104.588ZM117.336 66.621L103.429 79.0683L103.437 79.1079C103.009 79.4814 102.691 79.9637 102.516 80.5034C102.341 81.0432 102.315 81.6203 102.441 82.1736C102.568 82.7268 102.841 83.2356 103.233 83.6458C103.626 84.056 104.122 84.3524 104.669 84.5035L104.685 84.5786L122.699 89.7674C123.477 81.6745 121.594 73.5485 117.336 66.6227V66.621ZM91.4991 68.0156C91.5252 68.5826 91.7044 69.1318 92.0176 69.6051C92.3308 70.0784 92.7663 70.458 93.2779 70.7037C93.7894 70.9494 94.358 71.052 94.9232 71.0006C95.4883 70.9492 96.0291 70.7457 96.4879 70.4118L96.5428 70.4354L111.76 59.6452C105.967 53.9717 98.4715 50.3581 90.425 49.3604L91.4822 68.0106L91.4991 68.0156ZM75.3842 70.481C75.8432 70.8147 76.3841 71.0177 76.9494 71.0684C77.5146 71.1191 78.0831 71.0155 78.5941 70.7688C79.1052 70.5221 79.5398 70.1414 79.8518 69.6673C80.1637 69.1932 80.3412 68.6434 80.3654 68.0764L80.4431 68.0393L81.5002 49.3604C80.2241 49.5134 78.9566 49.7317 77.7027 50.0142C71.0323 51.5136 64.9138 54.8477 60.0379 59.6401L75.3546 70.4978L75.3842 70.481ZM67.2187 84.5946C67.767 84.445 68.2644 84.1494 68.6577 83.7393C69.0511 83.3292 69.3258 82.82 69.4524 82.266C69.5791 81.712 69.5529 81.134 69.3768 80.5937C69.2006 80.0534 68.8811 79.5711 68.4522 79.1982L68.4674 79.1248L54.4838 66.6168C50.2175 73.5605 48.3864 81.7277 49.2798 89.8281L67.2044 84.6562L67.2187 84.5946ZM80.8008 90.0888L85.9593 92.5693L91.1025 90.0947L92.3799 84.5414L88.8203 80.09H83.0915L79.5217 84.5347L80.8008 90.0888Z" fill="#326CE5"/>
<path d="M171.237 101.028L156.537 37.1805C156.142 35.5288 155.385 33.9853 154.321 32.6616C153.257 31.3378 151.912 30.2667 150.384 29.5256L90.8848 1.1178C89.3428 0.381909 87.6557 0 85.947 0C84.2383 0 82.5513 0.381909 81.0092 1.1178L21.5217 29.5407C19.9931 30.2814 18.6481 31.3522 17.5837 32.6759C16.5193 33.9995 15.7621 35.543 15.3668 37.1949L0.691267 101.041C0.329314 102.655 0.328161 104.329 0.687892 105.943C0.793833 106.435 0.932222 106.919 1.10215 107.393C1.38935 108.201 1.76961 108.972 2.23526 109.692C2.4369 110 2.64952 110.3 2.8807 110.59L44.0572 161.785C44.2369 162.008 44.4352 162.211 44.6317 162.418C45.2778 163.106 46.0074 163.71 46.8035 164.217C47.8103 164.851 48.9075 165.328 50.0577 165.632C51.0008 165.891 51.9737 166.025 52.9516 166.031L118.983 166.016C119.38 166.014 119.778 165.991 120.173 165.946C120.739 165.882 121.3 165.775 121.851 165.627C122.245 165.523 122.634 165.399 123.016 165.254C123.314 165.14 123.611 165.026 123.898 164.889C124.327 164.683 124.744 164.452 125.145 164.195C126.181 163.544 127.104 162.727 127.877 161.778L169.039 110.573C169.804 109.614 170.404 108.535 170.817 107.38C170.99 106.905 171.13 106.419 171.239 105.925C171.6 104.311 171.598 102.638 171.236 101.024L171.237 101.028ZM109.522 125.861C109.689 126.352 109.887 126.831 110.115 127.297C109.751 127.934 109.652 128.689 109.839 129.398C110.705 131.381 111.762 133.274 112.996 135.051C113.687 135.96 114.324 136.907 114.905 137.889C115.049 138.155 115.236 138.567 115.372 138.848C115.628 139.276 115.792 139.753 115.853 140.249C115.914 140.744 115.87 141.247 115.725 141.725C115.58 142.202 115.336 142.644 115.01 143.022C114.684 143.4 114.282 143.705 113.831 143.919C113.38 144.132 112.889 144.249 112.39 144.261C111.891 144.273 111.395 144.181 110.933 143.99C110.472 143.799 110.056 143.513 109.712 143.152C109.368 142.79 109.103 142.361 108.934 141.891C108.799 141.613 108.61 141.241 108.494 140.978C108.087 139.911 107.742 138.821 107.46 137.715C106.843 135.644 106.025 133.638 105.017 131.727C104.579 131.136 103.926 130.74 103.2 130.624C103.086 130.428 102.664 129.655 102.438 129.255C91.846 133.266 80.148 133.236 69.5769 129.17L68.7712 130.631C68.1961 130.72 67.6612 130.981 67.2365 131.378C66.0222 133.371 65.0941 135.524 64.4792 137.775C64.2002 138.882 63.8571 139.972 63.4516 141.039C63.3377 141.3 63.147 141.667 63.0112 141.944V141.952L63.0052 141.959C62.8372 142.429 62.5724 142.859 62.2278 143.221C61.8833 143.583 61.4668 143.869 61.005 144.06C60.5433 144.251 60.0466 144.343 59.5471 144.33C59.0475 144.318 58.5562 144.201 58.1048 143.986C57.6533 143.772 57.2518 143.466 56.9261 143.087C56.6004 142.708 56.3577 142.265 56.2138 141.786C56.0698 141.308 56.0278 140.804 56.0904 140.308C56.1529 139.813 56.3187 139.335 56.577 138.908C56.7112 138.625 56.8909 138.216 57.0326 137.95C57.6134 136.965 58.2507 136.015 58.9411 135.104C60.1974 133.28 61.2766 131.34 62.1641 129.311C62.2585 128.623 62.1482 127.923 61.8468 127.297L62.4948 125.745C52.7491 119.993 45.4451 110.874 41.9606 100.107L40.409 100.371C39.807 99.9439 39.0973 99.694 38.3604 99.6498C36.2374 100.056 34.1588 100.668 32.1541 101.476C31.1132 101.945 30.0464 102.353 28.959 102.7C28.7016 102.771 28.3304 102.842 28.0368 102.906C28.0132 102.914 27.9929 102.924 27.9693 102.93C27.9511 102.933 27.9328 102.934 27.9145 102.935C27.4418 103.091 26.9419 103.146 26.4468 103.097C25.9517 103.048 25.4722 102.896 25.039 102.651C24.6059 102.407 24.2287 102.074 23.9315 101.675C23.6343 101.276 23.4237 100.819 23.3131 100.334C23.2026 99.8491 23.1945 99.3462 23.2895 98.8578C23.3845 98.3695 23.5804 97.9063 23.8647 97.498C24.149 97.0897 24.5154 96.7452 24.9405 96.4866C25.3656 96.2281 25.84 96.0611 26.3333 95.9965L26.3848 95.9838L26.416 95.9754C26.7139 95.9054 27.0952 95.8067 27.3669 95.7543C28.4997 95.5971 29.6406 95.5052 30.7839 95.4793C32.9402 95.3383 35.0776 94.9874 37.1657 94.4314C37.7846 94.0372 38.3075 93.5097 38.6962 92.8874L40.1871 92.4521C38.5693 81.2149 41.1571 69.7761 47.454 60.3295L46.3124 59.3119C46.2708 58.5734 46.0229 57.8614 45.597 57.2566C43.957 55.8469 42.1832 54.6008 40.301 53.5359C39.2846 53.0176 38.299 52.4412 37.3488 51.8097C37.1328 51.6485 36.846 51.4064 36.6114 51.2157L36.5583 51.1786C35.7483 50.5968 35.2016 49.7181 35.0375 48.7344C34.8734 47.7508 35.1053 46.7422 35.6825 45.929C36.0236 45.5115 36.4582 45.1803 36.9512 44.9622C37.4441 44.744 37.9816 44.6452 38.5199 44.6735C39.4261 44.7124 40.296 45.0406 41.0021 45.6101C41.2442 45.7999 41.5758 46.0539 41.791 46.2386C42.6199 47.0226 43.403 47.8536 44.1365 48.7276C45.5918 50.3264 47.1996 51.7794 48.9372 53.0659C49.5883 53.4083 50.3477 53.4819 51.0524 53.271C51.4765 53.5803 51.9045 53.8846 52.3365 54.1839C58.5938 47.533 66.6963 42.9043 75.6035 40.892C77.7236 40.4119 79.8747 40.0812 82.0411 39.9024L82.1254 38.3972C82.6785 37.9057 83.0795 37.2664 83.2813 36.5545C83.359 34.3942 83.2262 32.2314 82.8848 30.0967C82.6583 28.9781 82.4961 27.8473 82.3988 26.7101C82.3895 26.4511 82.4039 26.0933 82.4072 25.798C82.4072 25.7643 82.3988 25.7314 82.3988 25.6985C82.3482 25.2007 82.4026 24.6978 82.5585 24.2223C82.7143 23.7469 82.9681 23.3094 83.3034 22.938C83.6388 22.5667 84.0483 22.2698 84.5055 22.0665C84.9627 21.8633 85.4575 21.7581 85.9578 21.7579C86.4582 21.7577 86.953 21.8623 87.4104 22.0652C87.8678 22.268 88.2776 22.5645 88.6133 22.9355C88.949 23.3065 89.2032 23.7438 89.3595 24.2191C89.5158 24.6945 89.5706 25.1973 89.5206 25.6951C89.5206 26.0073 89.5391 26.4215 89.5282 26.7076C89.4307 27.8446 89.2676 28.9751 89.0396 30.0934C88.6961 32.2284 88.5611 34.3917 88.6363 36.5528C88.7771 37.2753 89.1946 37.9141 89.7998 38.3331C89.8125 38.5904 89.8547 39.4493 89.8859 39.9226C101.143 40.9463 111.645 46.0211 119.443 54.2041L120.798 53.2364C121.526 53.3612 122.274 53.28 122.958 53.0018C124.695 51.7131 126.303 50.2584 127.758 48.6584C128.493 47.784 129.279 46.9529 130.11 46.1694C130.328 45.9821 130.658 45.7307 130.9 45.54C131.257 45.1877 131.684 44.9145 132.154 44.7381C132.624 44.5616 133.125 44.486 133.626 44.5159C134.127 44.5459 134.616 44.6809 135.062 44.9121C135.507 45.1433 135.899 45.4656 136.211 45.8581C136.524 46.2505 136.751 46.7043 136.877 47.19C137.003 47.6757 137.025 48.1825 136.943 48.6775C136.86 49.1724 136.674 49.6445 136.398 50.063C136.121 50.4815 135.759 50.8372 135.336 51.1068C135.097 51.3001 134.781 51.5692 134.552 51.7396C133.6 52.3717 132.612 52.948 131.593 53.4659C129.711 54.5313 127.938 55.7775 126.297 57.1866C125.82 57.7457 125.58 58.4695 125.629 59.2031C125.431 59.3853 124.735 60.0021 124.366 60.3362C130.681 69.7491 133.32 81.1526 131.784 92.3829L133.221 92.8014C133.581 93.4483 134.112 93.9831 134.757 94.3462C136.846 94.9028 138.985 95.2546 141.142 95.3966C142.284 95.4228 143.424 95.5141 144.556 95.67C144.855 95.7248 145.288 95.8446 145.594 95.9146C146.087 95.9795 146.561 96.1466 146.986 96.4054C147.411 96.6641 147.778 97.0088 148.062 97.4172C148.346 97.8257 148.542 98.289 148.636 98.7775C148.731 99.2659 148.723 99.7688 148.612 100.254C148.501 100.739 148.29 101.196 147.993 101.594C147.696 101.993 147.318 102.326 146.885 102.57C146.452 102.815 145.972 102.966 145.477 103.015C144.982 103.064 144.482 103.008 144.009 102.852L143.958 102.846C143.934 102.84 143.912 102.827 143.888 102.821C143.594 102.757 143.225 102.693 142.968 102.626C141.881 102.276 140.814 101.864 139.775 101.392C137.768 100.583 135.687 99.9711 133.562 99.5654C132.827 99.5421 132.112 99.8077 131.569 100.305C131.063 100.209 130.556 100.12 130.047 100.039C126.604 110.872 119.299 120.062 109.522 125.861Z" fill="#326CE5"/>
</g>
<defs>
<clipPath id="clip0_13980_171555">
<rect width="170.693" height="166" fill="white" transform="translate(0.653809)"/>
</clipPath>
</defs>
</svg>
