<svg width="16" height="16" viewBox="0 0 16 16" fill="none" xmlns="http://www.w3.org/2000/svg">
<g clip-path="url(#clip0_14794_13589)">
<rect width="16" height="16" fill="white" fill-opacity="0.01"/>
<g clip-path="url(#clip1_14794_13589)">
<path d="M9.51607 9.19176C9.49382 9.18723 9.47112 9.18546 9.44845 9.18648C9.4093 9.18861 9.37097 9.19884 9.33576 9.21657C9.26742 9.25049 9.21444 9.31023 9.18788 9.38333C9.16131 9.45643 9.16321 9.53725 9.19316 9.60894L9.19111 9.61195L9.86555 11.2874C10.5108 10.864 11.0005 10.2316 11.2571 9.49005L9.51908 9.18802L9.51607 9.19176ZM6.81181 9.42922C6.79719 9.36317 6.76144 9.30408 6.71027 9.26141C6.65911 9.21874 6.5955 9.19496 6.52963 9.19388C6.51018 9.19363 6.49076 9.1954 6.47166 9.19916L6.46873 9.19551L4.74585 9.49623C5.00457 10.2319 5.49217 10.8593 6.13301 11.2809L6.80066 9.62204L6.79544 9.61553C6.8201 9.55682 6.82584 9.49153 6.81181 9.42922ZM8.25473 10.0798C8.22957 10.0316 8.19214 9.99125 8.14644 9.96317C8.10075 9.9351 8.04849 9.9203 7.99526 9.92037C7.94203 9.92044 7.88981 9.93536 7.84418 9.96355C7.79855 9.99175 7.76121 10.0321 7.73617 10.0804H7.73474L6.88749 11.6558C7.49413 11.8682 8.1463 11.9027 8.77093 11.7554C8.88676 11.7283 8.99991 11.6958 9.11036 11.6579L8.26114 10.0797L8.25473 10.0798ZM10.9369 6.42033L9.63328 7.62006L9.63399 7.62388C9.59394 7.65989 9.56412 7.70637 9.54769 7.75839C9.53126 7.81041 9.52884 7.86604 9.54068 7.91937C9.55252 7.97269 9.57818 8.02173 9.61494 8.06127C9.6517 8.10081 9.69818 8.12937 9.74946 8.14394L9.75104 8.15117L11.4395 8.6513C11.5125 7.87126 11.336 7.08804 10.9369 6.42049V6.42033ZM8.515 6.55475C8.51746 6.60939 8.53425 6.66233 8.56361 6.70795C8.59297 6.75356 8.63379 6.79016 8.68174 6.81384C8.72969 6.83752 8.78299 6.84741 8.83596 6.84246C8.88894 6.8375 8.93963 6.81789 8.98264 6.7857L8.98778 6.78798L10.4142 5.74796C9.87121 5.20111 9.16857 4.85282 8.41433 4.75665L8.51342 6.55426L8.515 6.55475ZM7.00446 6.79237C7.04749 6.82454 7.0982 6.8441 7.15118 6.84899C7.20416 6.85387 7.25744 6.84389 7.30535 6.82011C7.35326 6.79634 7.394 6.75964 7.42323 6.71395C7.45247 6.66825 7.46911 6.61525 7.47139 6.5606L7.47866 6.55703L7.57776 4.75665C7.45813 4.7714 7.33932 4.79244 7.22179 4.81967C6.59654 4.96419 6.02301 5.28554 5.56597 5.74747L7.00169 6.794L7.00446 6.79237ZM6.23907 8.15272C6.29046 8.1383 6.33708 8.10981 6.37396 8.07028C6.41083 8.03076 6.43658 7.98167 6.44845 7.92828C6.46032 7.87488 6.45786 7.81917 6.44135 7.76709C6.42484 7.71502 6.39489 7.66853 6.35469 7.63259L6.35612 7.62551L5.04535 6.41992C4.64545 7.08919 4.47381 7.87639 4.55754 8.65716L6.23772 8.15865L6.23907 8.15272ZM7.51219 8.68228L7.99573 8.92137L8.47783 8.68285L8.59757 8.14759L8.26391 7.71854H7.72691L7.3923 8.14694L7.51219 8.68228Z" fill="#1E2EB8"/>
<path d="M15.9893 9.7367L14.6114 3.58269C14.5744 3.42348 14.5034 3.27472 14.4037 3.14713C14.3039 3.01953 14.1779 2.9163 14.0346 2.84486L8.45743 0.106763C8.31288 0.035834 8.15474 -0.000976562 7.99458 -0.000976562C7.83441 -0.000976563 7.67628 0.035834 7.53173 0.106763L1.95562 2.84632C1.81234 2.91771 1.68626 3.02092 1.58649 3.1485C1.48672 3.27609 1.41574 3.42486 1.37869 3.58407L0.0030653 9.73792C-0.0308626 9.89347 -0.0309706 10.0548 0.00274898 10.2104C0.0126794 10.2578 0.0256515 10.3045 0.0415801 10.3501C0.0685008 10.428 0.104145 10.5024 0.147793 10.5718C0.166694 10.6015 0.186624 10.6303 0.208293 10.6583L4.068 15.5927C4.08485 15.6142 4.10343 15.6338 4.12186 15.6537C4.18242 15.7201 4.25081 15.7783 4.32543 15.8272C4.4198 15.8883 4.52265 15.9343 4.63046 15.9636C4.71887 15.9885 4.81006 16.0014 4.90173 16.002L11.0912 16.0006C11.1285 16.0004 11.1657 15.9982 11.2027 15.9938C11.2558 15.9877 11.3084 15.9774 11.36 15.9631C11.397 15.9531 11.4335 15.9411 11.4693 15.9271C11.4972 15.9162 11.525 15.9052 11.5519 15.8919C11.5922 15.8721 11.6312 15.8498 11.6689 15.8251C11.766 15.7623 11.8525 15.6836 11.9249 15.5921L15.7832 10.6567C15.8549 10.5642 15.9113 10.4602 15.95 10.3489C15.9661 10.3031 15.9793 10.2563 15.9895 10.2087C16.0233 10.0531 16.0232 9.89181 15.9892 9.73629L15.9893 9.7367ZM10.2044 12.1302C10.22 12.1775 10.2386 12.2237 10.26 12.2686C10.2258 12.33 10.2165 12.4028 10.2341 12.4711C10.3153 12.6622 10.4144 12.8447 10.53 13.016C10.5948 13.1036 10.6545 13.1949 10.709 13.2896C10.7225 13.3152 10.74 13.3549 10.7527 13.3819C10.7768 13.4232 10.7921 13.4692 10.7978 13.517C10.8035 13.5647 10.7994 13.6132 10.7858 13.6592C10.7722 13.7053 10.7494 13.7479 10.7188 13.7843C10.6883 13.8207 10.6506 13.8501 10.6083 13.8707C10.566 13.8913 10.52 13.9025 10.4732 13.9037C10.4264 13.9049 10.3799 13.896 10.3367 13.8776C10.2935 13.8591 10.2545 13.8316 10.2222 13.7968C10.1899 13.762 10.1651 13.7206 10.1493 13.6753C10.1366 13.6484 10.1189 13.6126 10.108 13.5873C10.0699 13.4844 10.0375 13.3794 10.0112 13.2727C9.95327 13.0731 9.87657 12.8798 9.78212 12.6956C9.74103 12.6386 9.67988 12.6005 9.61177 12.5893C9.60109 12.5703 9.56155 12.4959 9.54035 12.4573C8.54752 12.8439 7.451 12.841 6.46011 12.4492L6.38459 12.5899C6.33068 12.5985 6.28054 12.6237 6.24073 12.662C6.12691 12.8541 6.03991 13.0616 5.98228 13.2786C5.95612 13.3853 5.92396 13.4903 5.88595 13.5931C5.87527 13.6183 5.8574 13.6536 5.84467 13.6804V13.6811L5.84411 13.6818C5.82836 13.7271 5.80354 13.7686 5.77124 13.8035C5.73895 13.8384 5.6999 13.8659 5.65662 13.8843C5.61334 13.9027 5.56679 13.9116 5.51996 13.9104C5.47314 13.9092 5.42708 13.8979 5.38476 13.8772C5.34245 13.8566 5.30481 13.827 5.27428 13.7905C5.24375 13.754 5.221 13.7113 5.20751 13.6651C5.19402 13.619 5.19008 13.5705 5.19594 13.5227C5.20181 13.4749 5.21735 13.4289 5.24156 13.3877C5.25413 13.3605 5.27098 13.321 5.28426 13.2954C5.33871 13.2005 5.39844 13.1089 5.46316 13.0211C5.58092 12.8453 5.68208 12.6583 5.76526 12.4628C5.77412 12.3965 5.76377 12.3289 5.73553 12.2686L5.79627 12.119C4.88275 11.5646 4.1981 10.6856 3.87147 9.6479L3.72604 9.67335C3.66961 9.63217 3.60308 9.60809 3.53401 9.60382C3.335 9.64298 3.14017 9.70195 2.95226 9.77988C2.85469 9.82501 2.75469 9.86438 2.65276 9.8978C2.62864 9.90463 2.59384 9.91146 2.56632 9.91764C2.5641 9.91845 2.56221 9.91943 2.55999 9.92C2.55829 9.92026 2.55657 9.92042 2.55485 9.92049C2.51055 9.93547 2.46369 9.94078 2.41728 9.93607C2.37087 9.93136 2.32592 9.91674 2.28532 9.89314C2.24472 9.86954 2.20936 9.83749 2.1815 9.79902C2.15365 9.76056 2.1339 9.71655 2.12354 9.66979C2.11318 9.62303 2.11243 9.57456 2.12133 9.52749C2.13023 9.48042 2.1486 9.43577 2.17525 9.39642C2.2019 9.35706 2.23624 9.32386 2.27609 9.29894C2.31594 9.27402 2.3604 9.25793 2.40664 9.2517L2.41147 9.25048L2.4144 9.24967C2.44231 9.24292 2.47806 9.2334 2.50352 9.22836C2.60971 9.2132 2.71665 9.20435 2.82382 9.20185C3.02594 9.18826 3.22629 9.15443 3.42203 9.10085C3.48004 9.06285 3.52905 9.01201 3.56549 8.95203L3.70524 8.91007C3.5536 7.82697 3.79616 6.72443 4.3864 5.81391L4.2794 5.71584C4.2755 5.64465 4.25226 5.57602 4.21233 5.51774C4.05861 5.38186 3.89235 5.26175 3.71591 5.15911C3.62064 5.10915 3.52825 5.0536 3.43919 4.99273C3.41894 4.97719 3.39206 4.95385 3.37007 4.93547L3.36509 4.9319C3.28917 4.87582 3.23792 4.79113 3.22253 4.69632C3.20715 4.60151 3.22889 4.50429 3.283 4.42591C3.31496 4.38567 3.3557 4.35375 3.40191 4.33273C3.44812 4.3117 3.4985 4.30217 3.54896 4.30491C3.63391 4.30866 3.71545 4.34029 3.78163 4.39517C3.80433 4.41347 3.83541 4.43795 3.85558 4.45576C3.93328 4.53132 4.00669 4.61142 4.07544 4.69566C4.21185 4.84976 4.36256 4.98981 4.52544 5.11381C4.58647 5.14681 4.65764 5.15391 4.7237 5.13357C4.76346 5.16339 4.80358 5.19272 4.84407 5.22156C5.43061 4.58052 6.1901 4.13438 7.02502 3.94042C7.22375 3.89415 7.42539 3.86227 7.62845 3.84503L7.63636 3.69996C7.6882 3.65258 7.72579 3.59096 7.74471 3.52235C7.75199 3.31412 7.73954 3.10566 7.70754 2.89991C7.68631 2.79209 7.6711 2.6831 7.66198 2.57349C7.66111 2.54852 7.66246 2.51404 7.66277 2.48558C7.66277 2.48233 7.66198 2.47916 7.66198 2.47599C7.65724 2.42801 7.66234 2.37954 7.67695 2.33371C7.69155 2.28788 7.71534 2.24571 7.74678 2.20992C7.77822 2.17413 7.8166 2.14551 7.85946 2.12592C7.90231 2.10633 7.94869 2.09619 7.99559 2.09617C8.04249 2.09615 8.08888 2.10624 8.13175 2.12579C8.17463 2.14534 8.21304 2.17392 8.2445 2.20968C8.27597 2.24543 8.2998 2.28758 8.31445 2.3334C8.3291 2.37921 8.33424 2.42768 8.32955 2.47566C8.32955 2.50575 8.33129 2.54568 8.33026 2.57325C8.32112 2.68284 8.30583 2.79181 8.28447 2.89959C8.25227 3.10537 8.23961 3.31389 8.24667 3.52219C8.25986 3.59182 8.299 3.6534 8.35572 3.69378C8.35691 3.71858 8.36087 3.80136 8.36379 3.84699C9.41896 3.94566 10.4034 4.43479 11.1343 5.22352L11.2613 5.13024C11.3296 5.14227 11.3997 5.13444 11.4638 5.10763C11.6266 4.98342 11.7774 4.84321 11.9138 4.68899C11.9827 4.60471 12.0563 4.52461 12.1342 4.44909C12.1547 4.43104 12.1856 4.4068 12.2082 4.38842C12.2417 4.35447 12.2818 4.32813 12.3258 4.31113C12.3699 4.29412 12.4169 4.28683 12.4638 4.28972C12.5108 4.29261 12.5566 4.30562 12.5984 4.3279C12.6401 4.35019 12.6768 4.38125 12.7061 4.41908C12.7355 4.4569 12.7567 4.50064 12.7685 4.54746C12.7803 4.59427 12.7824 4.64312 12.7747 4.69083C12.767 4.73853 12.7495 4.78403 12.7236 4.82437C12.6976 4.86471 12.6637 4.89899 12.6241 4.92498C12.6017 4.94361 12.5721 4.96955 12.5506 4.98598C12.4613 5.04689 12.3687 5.10245 12.2732 5.15236C12.0968 5.25505 11.9306 5.37516 11.7768 5.51099C11.7321 5.56488 11.7096 5.63464 11.7142 5.70535C11.6956 5.72291 11.6304 5.78236 11.5958 5.81456C12.1877 6.72183 12.4351 7.82097 12.2911 8.9034L12.4259 8.94373C12.4596 9.00609 12.5094 9.05763 12.5698 9.09263C12.7657 9.14628 12.9661 9.18019 13.1683 9.19388C13.2754 9.1964 13.3822 9.2052 13.4883 9.22023C13.5164 9.22551 13.557 9.23706 13.5856 9.24381C13.6318 9.25006 13.6763 9.26617 13.7161 9.29111C13.756 9.31605 13.7903 9.34927 13.817 9.38864C13.8436 9.42801 13.8619 9.47266 13.8708 9.51974C13.8797 9.56682 13.8789 9.61529 13.8685 9.66205C13.8582 9.7088 13.8384 9.75281 13.8105 9.79126C13.7826 9.82971 13.7472 9.86175 13.7066 9.88533C13.666 9.9089 13.6211 9.9235 13.5746 9.92818C13.5282 9.93287 13.4814 9.92753 13.4371 9.91252L13.4323 9.91187C13.43 9.9113 13.428 9.91008 13.4257 9.90951C13.3982 9.90333 13.3636 9.89715 13.3395 9.89064C13.2376 9.85697 13.1376 9.81728 13.0401 9.77175C12.8521 9.69375 12.657 9.63479 12.4578 9.59569C12.3889 9.59345 12.3218 9.61905 12.271 9.66701C12.2236 9.65774 12.176 9.64917 12.1284 9.64131C11.8056 10.6855 11.1209 11.5713 10.2044 12.1302Z" fill="#1E2EB8"/>
</g>
</g>
<defs>
<clipPath id="clip0_14794_13589">
<rect width="16" height="16" fill="white"/>
</clipPath>
<clipPath id="clip1_14794_13589">
<rect width="16" height="16" fill="white"/>
</clipPath>
</defs>
</svg>
