<svg width="167" height="166" viewBox="0 0 167 166" fill="none" xmlns="http://www.w3.org/2000/svg">
<path d="M141.173 160.812H24.9728V154.587H5.26025V5.1875H160.885V154.587H141.173V160.812ZM18.229 141.1H147.917V108.938H18.229V141.1ZM18.229 95.9688H147.917V63.8063H18.229V95.9688ZM18.229 50.8375H147.917V18.1562H18.229V50.8375ZM141.173 134.875H121.46V115.163H141.173V134.875ZM115.235 134.875H95.5228V115.163H115.235V134.875ZM89.2978 134.875H69.5853V115.163H89.2978V134.875ZM141.173 89.225H121.46V69.5125H141.173V89.225ZM115.235 89.225H95.5228V69.5125H115.235V89.225ZM89.2978 89.225H69.5853V69.5125H89.2978V89.225ZM141.173 44.0938H121.46V24.9H141.173V44.0938ZM115.235 44.0938H95.5228V24.9H115.235V44.0938ZM89.2978 44.0938H69.5853V24.9H89.2978V44.0938Z" fill="#326CE5"/>
</svg>
