<svg width="166" height="166" viewBox="0 0 166 166" fill="none" xmlns="http://www.w3.org/2000/svg">
<path d="M82.454 4.39342C81.0638 4.46559 79.7018 4.8208 78.4477 5.43821L23.7793 32.3578C22.3643 33.0542 21.1211 34.0675 20.1418 35.3224C19.1626 36.5773 18.4726 38.0416 18.123 39.6065L4.63588 100.075C4.32444 101.468 4.28958 102.911 4.53338 104.318C4.77717 105.725 5.29466 107.068 6.05521 108.267C6.23962 108.561 6.43795 108.844 6.64949 109.118L44.4888 157.603C45.4683 158.858 46.7116 159.871 48.1266 160.567C49.5416 161.263 51.0918 161.624 52.6621 161.624L113.343 161.609C114.913 161.611 116.463 161.25 117.878 160.556C119.293 159.861 120.537 158.849 121.517 157.596L159.342 109.103C160.322 107.848 161.013 106.383 161.363 104.818C161.712 103.252 161.712 101.626 161.363 100.06L147.855 39.5921C147.505 38.0272 146.815 36.5629 145.836 35.308C144.857 34.0531 143.613 33.0398 142.198 32.3434L87.523 5.43821C85.9456 4.66156 84.2026 4.3023 82.454 4.39342Z" fill="#326CE5"/>
<path d="M82.4246 0.014893C80.9588 0.0940233 79.5231 0.471266 78.2016 1.12454L20.4848 29.5357C18.9911 30.2709 17.6787 31.3406 16.645 32.6653C15.6113 33.9901 14.8829 35.5359 14.5138 37.1879L0.278654 101.021C-0.0511143 102.493 -0.0886061 104.017 0.168403 105.503C0.425412 106.99 0.971687 108.408 1.77487 109.675C1.97026 109.983 2.18025 110.281 2.4041 110.568L42.3479 161.756C43.3819 163.08 44.6944 164.149 46.1881 164.884C47.6817 165.619 49.3181 166 50.9757 166L115.034 165.986C116.691 165.987 118.327 165.606 119.821 164.873C121.314 164.14 122.627 163.072 123.662 161.749L163.592 110.554C164.625 109.229 165.354 107.684 165.723 106.033C166.092 104.381 166.092 102.666 165.724 101.014L151.468 37.1735C151.098 35.5228 150.369 33.9784 149.336 32.655C148.302 31.3315 146.99 30.2629 145.497 29.5285L87.7803 1.11733C86.1137 0.296866 84.272 -0.0822299 82.4246 0.014893ZM82.4525 4.39582C84.2012 4.3047 85.9442 4.66396 87.5216 5.44061L142.197 32.3458C143.612 33.0422 144.855 34.0555 145.834 35.3104C146.814 36.5653 147.504 38.0296 147.853 39.5945L161.361 100.063C161.711 101.628 161.711 103.254 161.361 104.82C161.011 106.386 160.321 107.85 159.341 109.106L121.515 157.598C120.535 158.852 119.292 159.863 117.877 160.558C116.462 161.253 114.912 161.613 113.342 161.612L52.6608 161.626C51.0904 161.627 49.5402 161.265 48.1252 160.569C46.7103 159.873 45.4669 158.86 44.4874 157.606L6.64812 109.12C6.43658 108.847 6.23825 108.563 6.05384 108.27C5.29329 107.071 4.7758 105.728 4.53201 104.321C4.28822 102.913 4.32308 101.47 4.63451 100.077L18.1216 39.609C18.4712 38.0441 19.1612 36.5798 20.1405 35.3249C21.1197 34.07 22.363 33.0567 23.7779 32.3603L78.4463 5.44068C79.7004 4.82326 81.0624 4.46799 82.4525 4.39582Z" fill="white"/>
<path fill-rule="evenodd" clip-rule="evenodd" d="M78.9586 125.125C56.4761 126.221 37.3553 108.4 36.1618 85.2366C34.9682 62.0737 52.15 42.2656 74.6185 40.9015C97.087 39.5374 115.439 57.1636 116.893 80.3106L102.281 80.3263C101.403 66.3464 89.1417 56.7504 75.5715 57.5743C62.0015 58.3982 51.6244 70.3615 52.3452 84.3509C53.0659 98.3404 64.6144 109.104 78.1928 108.442L78.9586 125.125Z" fill="white"/>
<path fill-rule="evenodd" clip-rule="evenodd" d="M87.3391 80.3263L100.201 112.772L129.897 80.3263H87.3391Z" fill="white"/>
</svg>
