<svg width="16" height="16" viewBox="0 0 16 16" fill="none" xmlns="http://www.w3.org/2000/svg">
<g clip-path="url(#clip0_5620_120085)">
<path d="M7.28918 8.00086L3.9976 11.2924C3.80233 11.4877 3.80233 11.8043 3.9976 11.9995C4.19286 12.1948 4.50944 12.1948 4.7047 11.9995L7.99629 8.70797C8.19155 8.51271 8.19155 8.19612 7.99629 8.00086C7.80102 7.8056 7.48444 7.8056 7.28918 8.00086Z" fill="currentcolor"/>
<path d="M8.49999 15C8.43999 15 8.37499 14.99 8.31499 14.965C8.14999 14.9 8.02999 14.75 8.00499 14.57L7.57578 11.5655C7.5367 11.2919 7.72698 11.0386 8.00056 10.9999C8.2737 10.9613 8.52648 11.1513 8.56535 11.4244L8.86999 13.565L10.5 12.26V8.5C10.5 8.365 10.555 8.24 10.645 8.145L12.68 6.11C13.53 5.26 14 4.13 14 2.93V2H13.07C11.87 2 10.74 2.47 9.88999 3.32L7.85499 5.355C7.75999 5.45 7.63499 5.5 7.49999 5.5H3.73999L2.43499 7.13L4.57563 7.43464C4.84873 7.47351 5.0387 7.72629 5.00008 7.99943C4.96139 8.27301 4.70805 8.46329 4.43453 8.42422L1.42999 7.995C1.24999 7.97 1.09999 7.85 1.03499 7.685C0.969995 7.52 0.994995 7.33 1.10999 7.19L3.10999 4.69C3.20499 4.57 3.34999 4.5 3.49999 4.5H7.29499L9.18499 2.61C10.225 1.57 11.605 1 13.075 1H14.005C14.555 1 15.005 1.45 15.005 2V2.93C15.005 4.4 14.435 5.78 13.395 6.82L11.505 8.71V12.505C11.505 12.655 11.435 12.8 11.315 12.895L8.81499 14.895C8.72499 14.965 8.615 15.005 8.50499 15.005L8.49999 15Z" fill="currentcolor"/>
</g>
<defs>
<clipPath id="clip0_5620_120085">
<rect width="16" height="16" fill="white"/>
</clipPath>
</defs>
</svg>
