<?xml version="1.0" encoding="UTF-8"?>
<svg id="Layer_2" data-name="Layer 2" xmlns="http://www.w3.org/2000/svg" viewBox="0 0 45.48 38.66">
  <g id="cloud">
    <path d="M25.02,38.64v-4.51s10.76,0,10.76,0c2.84,0,5.16-2.31,5.17-5.16,0-1.54-.53-2.84-1.51-3.82-.98-.98-2.5-1.52-3.89-1.52h-1.66c-1.24,0-2.26-1.01-2.26-2.26v-1.67c-.19-5.02-4.28-6.38-6.03-6.73-.52-.1-1.02-.15-1.48-.15-3.57,0-5.44,2.82-6.38,5.19-.34.85-1.16,1.4-2.09,1.4-.23,0-.47-.04-.7-.11-.9-.28-1.74-.41-2.52-.41h-.25c-1.64.07-3.09.53-4.31,1.36-2.14,1.45-3.39,3.8-3.35,6.26,0,4.06,3.01,7.33,7.01,7.61l4.39-.03v4.55s-4.54-.01-4.54-.01C4.89,38.21,0,33.01,0,26.57c-.06-3.97,1.93-7.72,5.33-10.03,2.06-1.4,4.43-2.14,6.85-2.14.78,0,1.55.08,2.3.23,1.84-3.87,5.67-6.22,10.13-6.22.54,0,1.07.04,1.6.11,4.76.63,9.68,4.32,9.93,11.12,4.98.18,9.34,4.44,9.34,9.58s-3.9,9.16-8.88,9.44h0s-11.58,0-11.58,0Z" fill="currentcolor"/>
  </g>
  <g id="blocks">
    <rect x="18.36" y="34.11" width="4.55" height="4.55" fill="currentcolor"/>
    <rect x="36.39" y="9.1" width="4.55" height="4.55" fill="currentcolor"/>
    <rect x="40.93" y="4.55" width="4.55" height="4.55" fill="currentcolor"/>
    <rect x="31.84" y="0" width="4.55" height="4.55" fill="currentcolor"/>
  </g>
</svg>