<svg width="50" height="34" viewBox="0 0 50 34" fill="none" xmlns="http://www.w3.org/2000/svg">
<rect x="0.399902" y="0.800049" width="49.6" height="32.4" rx="3.2" fill="white"/>
<g clip-path="url(#clip0_11720_5914)">
<rect width="16" height="16" transform="translate(17.1997 9)" fill="white" fill-opacity="0.01"/>
<path d="M19.1997 11C19.1997 10.4696 19.4104 9.96086 19.7855 9.58579C20.1606 9.21071 20.6693 9 21.1997 9H29.1997C29.7301 9 30.2388 9.21071 30.6139 9.58579C30.989 9.96086 31.1997 10.4696 31.1997 11V24.5C31.1997 24.5904 31.1751 24.6792 31.1286 24.7568C31.0821 24.8343 31.0154 24.8979 30.9357 24.9405C30.856 24.9832 30.7662 25.0035 30.6758 24.9992C30.5855 24.9948 30.498 24.9661 30.4227 24.916L25.1997 22.101L19.9767 24.916C19.9014 24.9661 19.8139 24.9948 19.7236 24.9992C19.6333 25.0035 19.5434 24.9832 19.4637 24.9405C19.384 24.8979 19.3173 24.8343 19.2708 24.7568C19.2243 24.6792 19.1998 24.5904 19.1997 24.5V11ZM21.1997 10C20.9345 10 20.6801 10.1054 20.4926 10.2929C20.3051 10.4804 20.1997 10.7348 20.1997 11V23.566L24.9227 21.084C25.0048 21.0294 25.1011 21.0003 25.1997 21.0003C25.2983 21.0003 25.3946 21.0294 25.4767 21.084L30.1997 23.566V11C30.1997 10.7348 30.0943 10.4804 29.9068 10.2929C29.7193 10.1054 29.4649 10 29.1997 10H21.1997Z" fill="#1E2EB8"/>
</g>
<defs>
<clipPath id="clip0_11720_5914">
<rect width="16" height="16" fill="white" transform="translate(17.1997 9)"/>
</clipPath>
</defs>
</svg>
