<svg width="12" height="12" viewBox="0 0 12 12" fill="none" xmlns="http://www.w3.org/2000/svg">
<path d="M5.5 0C5.22386 0 5 0.223858 5 0.5C5 0.776142 5.22386 1 5.5 1H8.29289L2.64645 6.64645C2.45118 6.84171 2.45118 7.15829 2.64645 7.35355C2.84171 7.54882 3.15829 7.54882 3.35355 7.35355L9 1.70711V4.5C9 4.77614 9.22386 5 9.5 5C9.77614 5 10 4.77614 10 4.5V0.55C10 0.246244 9.75376 0 9.45 0H5.5Z" fill="currentcolor"/>
<path d="M1 1C0.447715 1 0 1.44772 0 2V9C0 9.55228 0.447715 10 1 10H8C8.55228 10 9 9.55229 9 9V6.5C9 6.22386 8.77614 6 8.5 6C8.22386 6 8 6.22386 8 6.5V9H1V2H3.5C3.77614 2 4 1.77614 4 1.5C4 1.22386 3.77614 1 3.5 1H1Z" fill="currentcolor"/>
</svg>
