<svg width="32" height="32" viewBox="0 0 32 32" fill="none" xmlns="http://www.w3.org/2000/svg">
<rect width="32" height="32" fill="white" fill-opacity="0.01"/>
<g clip-path="url(#clip0_12760_31751)">
<path d="M10.4064 6.35629L10.4064 8.49915H8.30642V6.35629H10.4064Z" fill="white"/>
<path d="M24.172 6.35629V8.49915L12.2064 8.49914V6.35629L24.172 6.35629Z" fill="white"/>
<path d="M10.4064 14.9277L10.4064 17.0706H8.30642V14.9277H10.4064Z" fill="white"/>
<path d="M24.172 17.0706V14.9277H12.2064V17.0706H24.172Z" fill="white"/>
<path d="M10.4064 25.642L10.4064 23.4991H8.30642V25.642H10.4064Z" fill="white"/>
<path d="M24.172 23.4991V25.642H12.2064V23.4991H24.172Z" fill="white"/>
<path fill-rule="evenodd" clip-rule="evenodd" d="M2.20642 1.53486C2.20642 1.23899 2.44147 0.999146 2.73142 0.999146H29.6814C29.9714 0.999146 30.2064 1.23899 30.2064 1.53486V30.9991C29.8985 30.9991 29.6635 30.9991 29.3735 30.9991H22.1735H20.9064H12.5064H11.1485H2.94855C2.6586 30.9991 2.42355 30.9991 2.20642 30.9991V1.53486ZM6.20642 4.21343H26.2064V10.642H6.20642V4.21343ZM26.2064 12.7849H6.20642V19.2134H26.2064V12.7849ZM6.20642 21.3563H26.2064V27.7849H6.20642V21.3563Z" fill="white"/>
</g>
<defs>
<clipPath id="clip0_12760_31751">
<rect width="28" height="28" fill="white" transform="translate(2 2)"/>
</clipPath>
</defs>
</svg>
