<svg width="28" height="28" viewBox="0 0 28 28" fill="none" xmlns="http://www.w3.org/2000/svg">
<g clip-path="url(#clip0_12921_37538)">
<path d="M23.054 1.73164C23.0679 2.05427 22.9867 2.37381 22.8205 2.64985C22.6543 2.92588 22.4107 3.146 22.1204 3.28235C21.8301 3.41871 21.5063 3.46517 21.1898 3.41587C20.8734 3.36656 20.5785 3.22371 20.3426 3.00537C20.1067 2.78704 19.9403 2.50303 19.8644 2.18929C19.7886 1.87554 19.8067 1.54616 19.9165 1.24281C20.0263 0.939458 20.2229 0.675774 20.4813 0.485111C20.7398 0.294448 21.0485 0.185376 21.3684 0.171694C21.797 0.153366 22.2152 0.307366 22.5313 0.599863C22.8474 0.892358 23.0354 1.29943 23.054 1.73164Z" fill="white"/>
<path d="M13.6175 20.9254C9.30761 20.9254 5.54365 19.3461 3.58984 17.0086C4.31751 19.1061 5.67368 20.9236 7.47064 22.2095C9.26764 23.4954 11.4165 24.1862 13.6199 24.1862C15.8233 24.1862 17.9721 23.4954 19.7691 22.2095C21.5661 20.9236 22.9223 19.1061 23.6499 17.0086C21.6913 19.3461 17.9274 20.9254 13.6175 20.9254Z" fill="#F37726"/>
<path d="M13.6164 5.72039C17.9263 5.72039 21.6903 7.29966 23.6441 9.63715C22.9164 7.53969 21.5602 5.72221 19.7633 4.43628C17.9663 3.15036 15.8174 2.45959 13.614 2.45959C11.4106 2.45959 9.26178 3.15036 7.46478 4.43628C5.66782 5.72221 4.31165 7.53969 3.58398 9.63715C5.54258 7.30449 9.30653 5.72039 13.6164 5.72039Z" fill="#F37726"/>
<path d="M7.7011 25.4709C7.71878 25.8777 7.61637 26.2806 7.40685 26.6286C7.19734 26.9767 6.89013 27.2542 6.52413 27.4261C6.15813 27.5979 5.74979 27.6564 5.35082 27.5941C4.95185 27.5318 4.58019 27.3515 4.28288 27.076C3.98558 26.8005 3.77601 26.4423 3.6807 26.0466C3.5854 25.6509 3.60864 25.2357 3.7475 24.8533C3.88635 24.471 4.13457 24.1388 4.46072 23.8989C4.78688 23.6589 5.1763 23.5219 5.57969 23.5053C6.11926 23.483 6.64556 23.6774 7.04323 24.0459C7.44089 24.4143 7.67747 24.9268 7.7011 25.4709Z" fill="white"/>
<path d="M4.08089 5.19173C3.84422 5.20204 3.60983 5.1413 3.4074 5.01721C3.20496 4.89312 3.04358 4.71125 2.94369 4.49462C2.84379 4.27799 2.80986 4.03634 2.8462 3.80025C2.88254 3.56416 2.98752 3.34426 3.14783 3.16836C3.30815 2.99247 3.51661 2.8685 3.74682 2.81215C3.97703 2.75579 4.21864 2.76958 4.44108 2.85177C4.66351 2.93397 4.85677 3.08086 4.99639 3.27387C5.136 3.46689 5.2157 3.69733 5.2254 3.93605C5.23838 4.25553 5.12517 4.56716 4.9106 4.80256C4.69604 5.03797 4.39765 5.17793 4.08089 5.19173Z" fill="white"/>
</g>
<defs>
<clipPath id="clip0_12921_37538">
<rect width="21.4118" height="28" fill="white" transform="translate(2.63477)"/>
</clipPath>
</defs>
</svg>
