<svg width="24" height="24" viewBox="0 0 24 24" fill="none" xmlns="http://www.w3.org/2000/svg">
<g clip-path="url(#clip0_12800_10289)">
<path d="M2.14082 12.6117C2.14082 13.3647 2.09376 13.6 1.95259 13.7411C1.76435 13.8823 1.57611 13.9764 1.34082 13.9764L1.38788 14.4C1.71729 14.4 2.09376 14.2588 2.32906 14.0706C2.47023 13.8823 2.56435 13.6941 2.65847 13.4588C2.70553 13.2235 2.75259 13.0353 2.70553 12.8V10.0235H2.14082V12.6117Z" fill="#4E4E4E"/>
<path d="M6.32896 12.2823C6.32896 12.6117 6.32896 12.8941 6.37602 13.1294H5.85837L5.81131 12.6117C5.71719 12.8 5.57602 12.9411 5.38778 13.0353C5.19955 13.1294 5.01131 13.1764 4.82308 13.1764C4.35249 13.1764 3.74072 12.8941 3.74072 11.8588V10.0706H4.30543V11.7647C4.30543 12.3294 4.49366 12.7529 5.01131 12.7529C5.10543 12.7529 5.19955 12.7529 5.29366 12.7059C5.38778 12.6588 5.4819 12.6117 5.52896 12.5176C5.62308 12.4235 5.67013 12.3764 5.71719 12.2823C5.76425 12.1882 5.76425 12.0941 5.76425 12V10.1176H6.32896V12.2823Z" fill="#4E4E4E"/>
<path d="M7.36444 11.0588C7.36444 10.6823 7.36444 10.3529 7.31738 10.0706H7.83503L7.88209 10.5882C7.97621 10.4 8.16444 10.2588 8.35268 10.1176C8.54091 10.0235 8.77621 9.97644 8.96444 9.97644C9.71738 9.97644 10.2821 10.5882 10.2821 11.5294C10.2821 12.6117 9.62327 13.1764 8.87032 13.1764C8.68209 13.1764 8.49385 13.1294 8.35268 13.0823C8.16444 12.9882 8.02327 12.8941 7.92915 12.7059V14.4H7.36444V11.0588ZM7.92915 11.9059C7.92915 12 7.92915 12.047 7.97621 12.1411C8.02327 12.3294 8.11738 12.4706 8.30562 12.6117C8.44679 12.7059 8.63503 12.8 8.82327 12.8C9.43503 12.8 9.76444 12.3294 9.76444 11.6235C9.76444 11.0117 9.43503 10.4941 8.87032 10.4941C8.63503 10.4941 8.39974 10.6353 8.25856 10.7764C8.11738 10.9176 8.02327 11.1529 7.97621 11.3882V11.9059H7.92915Z" fill="#4E4E4E"/>
<path d="M11.2702 10.0706L11.929 11.8588C12.0231 12.047 12.0702 12.2823 12.1172 12.4706C12.1643 12.2823 12.2584 12.047 12.3054 11.8117L12.9172 10.0235H13.529L12.729 12.2353C12.3054 13.2706 12.0702 13.8353 11.6466 14.1647C11.4584 14.3529 11.2231 14.447 10.9407 14.5411L10.7996 14.0706C10.9878 14.0235 11.129 13.9294 11.2702 13.7882C11.4584 13.6 11.6466 13.4117 11.7407 13.1764C11.7407 13.1294 11.7878 13.0823 11.7878 13.0353C11.7878 12.9882 11.7878 12.9411 11.7407 12.8941L10.6113 10.0706H11.2702Z" fill="#4E4E4E"/>
<path d="M15.0348 9.17645V10.0706H15.8348V10.4941H15.0348V12.1412C15.0348 12.5176 15.1289 12.7529 15.4583 12.7529C15.5525 12.7529 15.6936 12.7529 15.7877 12.7059L15.8348 13.1294C15.6466 13.1765 15.5054 13.2235 15.3172 13.1765C15.223 13.1765 15.0819 13.1765 14.9877 13.1294C14.8936 13.0823 14.7995 13.0353 14.7054 12.9412C14.5172 12.7059 14.4701 12.4235 14.4701 12.1412V10.447H13.9995V10.0235H14.4701V9.27057L15.0348 9.17645Z" fill="#4E4E4E"/>
<path d="M16.8704 11.7176C16.8704 11.8588 16.8704 12 16.9174 12.1411C16.9645 12.2823 17.0586 12.3764 17.1527 12.5176C17.2468 12.6117 17.388 12.7059 17.5292 12.7529C17.6704 12.8 17.8115 12.8 17.9527 12.8C18.2351 12.8 18.5174 12.7529 18.7998 12.6588L18.8939 13.0823C18.5645 13.2235 18.2351 13.2706 17.8586 13.2706C17.6704 13.2706 17.4351 13.2706 17.2468 13.1764C17.0586 13.0823 16.8704 12.9882 16.7292 12.847C16.588 12.7059 16.4939 12.5176 16.3998 12.3294C16.3527 12.1411 16.3057 11.9529 16.3057 11.7176C16.3057 10.7764 16.8704 10.0706 17.7645 10.0706C18.7527 10.0706 19.0351 10.9647 19.0351 11.5294C19.0351 11.6235 19.0351 11.7176 19.0351 11.8117L16.8704 11.7176ZM18.5174 11.2941C18.5174 11.2 18.5174 11.0588 18.4704 10.9647C18.4233 10.8706 18.3763 10.7764 18.3292 10.6823C18.2351 10.5882 18.141 10.5411 18.0468 10.4941C17.9527 10.447 17.8115 10.4 17.7174 10.4C17.4821 10.4 17.2939 10.5411 17.1057 10.6823C16.9645 10.8706 16.8704 11.0588 16.8704 11.2941H18.5174Z" fill="#4E4E4E"/>
<path d="M19.882 11.0117C19.882 10.6353 19.882 10.3529 19.835 10.0706H20.3526V10.6823H20.3997C20.4467 10.4941 20.5408 10.3529 20.7291 10.2117C20.8703 10.0706 21.0585 10.0235 21.2467 10.0235C21.2938 10.0235 21.3408 10.0235 21.3879 10.0235V10.5411C21.3408 10.5411 21.2467 10.5411 21.1997 10.5411C21.0114 10.5411 20.8232 10.6353 20.682 10.7764C20.5408 10.9176 20.4467 11.1059 20.4467 11.2941C20.4467 11.3882 20.3997 11.4823 20.3997 11.5764V13.2235H19.882V11.0117Z" fill="#4E4E4E"/>
<path d="M19.6467 1.64705C19.6467 1.92941 19.5997 2.21176 19.4585 2.44705C19.3173 2.68235 19.082 2.87058 18.8467 3.01176C18.6114 3.15294 18.3291 3.2 18.0467 3.15294C17.7644 3.10588 17.5291 3.01176 17.2938 2.82353C17.0585 2.63529 16.9173 2.35294 16.8703 2.07058C16.8232 1.78823 16.8232 1.50588 16.9173 1.22353C17.0114 0.941172 17.1997 0.705878 17.435 0.564702C17.6703 0.376466 17.9526 0.282349 18.235 0.282349C18.4232 0.282349 18.6114 0.282349 18.7997 0.376466C18.9879 0.423525 19.1291 0.517643 19.2703 0.658819C19.4114 0.799996 19.5056 0.941172 19.5997 1.08235C19.6938 1.22353 19.6467 1.45882 19.6467 1.64705Z" fill="#767677"/>
<path d="M11.3645 18.0706C7.59975 18.0706 4.25857 16.7059 2.56445 14.7294C3.22328 16.5177 4.44681 18.0706 5.99975 19.153C7.55269 20.2353 9.43504 20.8471 11.3645 20.8471C13.2939 20.8471 15.1292 20.2824 16.7292 19.153C18.2821 18.0706 19.5056 16.5177 20.1645 14.7294C18.4703 16.7059 15.1762 18.0706 11.3645 18.0706Z" fill="#F37726"/>
<path d="M11.3645 5.08238C15.1292 5.08238 18.4703 6.44708 20.1645 8.42356C19.5056 6.63532 18.2821 5.08238 16.7292 4.00003C15.1762 2.87061 13.2939 2.30591 11.3645 2.30591C9.43504 2.30591 7.59975 2.87061 5.99975 4.00003C4.44681 5.08238 3.22328 6.63532 2.56445 8.42356C4.30563 6.40003 7.59975 5.08238 11.3645 5.08238Z" fill="#F37726"/>
<path d="M6.18765 21.9765C6.18765 22.3529 6.14059 22.6823 5.95235 23.0118C5.76412 23.2941 5.48177 23.5294 5.15235 23.6706C4.82294 23.8118 4.49353 23.8588 4.11706 23.8118C3.78765 23.7647 3.45824 23.6235 3.17588 23.3882C2.89353 23.1529 2.70529 22.8235 2.65824 22.4941C2.56412 22.1647 2.61118 21.7882 2.70529 21.4588C2.84647 21.1294 3.03471 20.8471 3.31706 20.6118C3.59941 20.4235 3.92882 20.2823 4.30529 20.2823C4.54059 20.2823 4.77588 20.2823 5.01118 20.3765C5.24647 20.4706 5.43471 20.5647 5.62294 20.7529C5.81118 20.9412 5.95235 21.0823 6.04647 21.3176C6.09353 21.5059 6.14059 21.7412 6.18765 21.9765Z" fill="#9E9E9E"/>
<path d="M2.98784 4.61176C2.7996 4.61176 2.56431 4.5647 2.42313 4.47058C2.2349 4.37646 2.09372 4.18823 2.04666 3.99999C1.95254 3.81176 1.90548 3.62352 1.95254 3.43529C1.9996 3.24705 2.09372 3.05881 2.2349 2.91764C2.37607 2.77646 2.56431 2.68234 2.75254 2.63529C2.94078 2.54117 3.12901 2.54117 3.31725 2.63529C3.50549 2.7294 3.69372 2.82352 3.78784 3.01176C3.92901 3.15293 3.97607 3.38823 3.97607 3.57646C3.97607 3.85881 3.88196 4.14117 3.69372 4.3294C3.55254 4.47058 3.27019 4.61176 2.98784 4.61176Z" fill="#616262"/>
</g>
<defs>
<clipPath id="clip0_12800_10289">
<rect width="20.7059" height="24" fill="white" transform="translate(1.05859)"/>
</clipPath>
</defs>
</svg>
