<svg width="53" height="52" viewBox="0 0 53 52" fill="none" xmlns="http://www.w3.org/2000/svg">
<rect width="52" height="52" transform="translate(0.5)" fill="#00377C"/>
<g clip-path="url(#clip0_10907_65462)">
<rect width="32" height="32" transform="translate(10.5 10)" fill="white" fill-opacity="0.01"/>
<g clip-path="url(#clip1_10907_65462)">
<path d="M20.5 10C20.7652 10 21.0196 10.1054 21.2071 10.2929C21.3946 10.4804 21.5 10.7348 21.5 11V14H23.5V11C23.5 10.7348 23.6054 10.4804 23.7929 10.2929C23.9804 10.1054 24.2348 10 24.5 10C24.7652 10 25.0196 10.1054 25.2071 10.2929C25.3946 10.4804 25.5 10.7348 25.5 11V14H27.5V11C27.5 10.7348 27.6054 10.4804 27.7929 10.2929C27.9804 10.1054 28.2348 10 28.5 10C28.7652 10 29.0196 10.1054 29.2071 10.2929C29.3946 10.4804 29.5 10.7348 29.5 11V14H31.5V11C31.5 10.7348 31.6054 10.4804 31.7929 10.2929C31.9804 10.1054 32.2348 10 32.5 10C32.7652 10 33.0196 10.1054 33.2071 10.2929C33.3946 10.4804 33.5 10.7348 33.5 11V14C34.8261 14 36.0979 14.5268 37.0355 15.4645C37.9732 16.4021 38.5 17.6739 38.5 19H41.5C41.7652 19 42.0196 19.1054 42.2071 19.2929C42.3946 19.4804 42.5 19.7348 42.5 20C42.5 20.2652 42.3946 20.5196 42.2071 20.7071C42.0196 20.8946 41.7652 21 41.5 21H38.5V23H41.5C41.7652 23 42.0196 23.1054 42.2071 23.2929C42.3946 23.4804 42.5 23.7348 42.5 24C42.5 24.2652 42.3946 24.5196 42.2071 24.7071C42.0196 24.8946 41.7652 25 41.5 25H38.5V27H41.5C41.7652 27 42.0196 27.1054 42.2071 27.2929C42.3946 27.4804 42.5 27.7348 42.5 28C42.5 28.2652 42.3946 28.5196 42.2071 28.7071C42.0196 28.8946 41.7652 29 41.5 29H38.5V31H41.5C41.7652 31 42.0196 31.1054 42.2071 31.2929C42.3946 31.4804 42.5 31.7348 42.5 32C42.5 32.2652 42.3946 32.5196 42.2071 32.7071C42.0196 32.8946 41.7652 33 41.5 33H38.5C38.5 34.3261 37.9732 35.5979 37.0355 36.5355C36.0979 37.4732 34.8261 38 33.5 38V41C33.5 41.2652 33.3946 41.5196 33.2071 41.7071C33.0196 41.8946 32.7652 42 32.5 42C32.2348 42 31.9804 41.8946 31.7929 41.7071C31.6054 41.5196 31.5 41.2652 31.5 41V38H29.5V41C29.5 41.2652 29.3946 41.5196 29.2071 41.7071C29.0196 41.8946 28.7652 42 28.5 42C28.2348 42 27.9804 41.8946 27.7929 41.7071C27.6054 41.5196 27.5 41.2652 27.5 41V38H25.5V41C25.5 41.2652 25.3946 41.5196 25.2071 41.7071C25.0196 41.8946 24.7652 42 24.5 42C24.2348 42 23.9804 41.8946 23.7929 41.7071C23.6054 41.5196 23.5 41.2652 23.5 41V38H21.5V41C21.5 41.2652 21.3946 41.5196 21.2071 41.7071C21.0196 41.8946 20.7652 42 20.5 42C20.2348 42 19.9804 41.8946 19.7929 41.7071C19.6054 41.5196 19.5 41.2652 19.5 41V38C18.1739 38 16.9021 37.4732 15.9645 36.5355C15.0268 35.5979 14.5 34.3261 14.5 33H11.5C11.2348 33 10.9804 32.8946 10.7929 32.7071C10.6054 32.5196 10.5 32.2652 10.5 32C10.5 31.7348 10.6054 31.4804 10.7929 31.2929C10.9804 31.1054 11.2348 31 11.5 31H14.5V29H11.5C11.2348 29 10.9804 28.8946 10.7929 28.7071C10.6054 28.5196 10.5 28.2652 10.5 28C10.5 27.7348 10.6054 27.4804 10.7929 27.2929C10.9804 27.1054 11.2348 27 11.5 27H14.5V25H11.5C11.2348 25 10.9804 24.8946 10.7929 24.7071C10.6054 24.5196 10.5 24.2652 10.5 24C10.5 23.7348 10.6054 23.4804 10.7929 23.2929C10.9804 23.1054 11.2348 23 11.5 23H14.5V21H11.5C11.2348 21 10.9804 20.8946 10.7929 20.7071C10.6054 20.5196 10.5 20.2652 10.5 20C10.5 19.7348 10.6054 19.4804 10.7929 19.2929C10.9804 19.1054 11.2348 19 11.5 19H14.5C14.5 17.6739 15.0268 16.4021 15.9645 15.4645C16.9021 14.5268 18.1739 14 19.5 14V11C19.5 10.7348 19.6054 10.4804 19.7929 10.2929C19.9804 10.1054 20.2348 10 20.5 10V10ZM19.5 16C18.7044 16 17.9413 16.3161 17.3787 16.8787C16.8161 17.4413 16.5 18.2044 16.5 19V33C16.5 33.7956 16.8161 34.5587 17.3787 35.1213C17.9413 35.6839 18.7044 36 19.5 36H33.5C34.2956 36 35.0587 35.6839 35.6213 35.1213C36.1839 34.5587 36.5 33.7956 36.5 33V19C36.5 18.2044 36.1839 17.4413 35.6213 16.8787C35.0587 16.3161 34.2956 16 33.5 16H19.5ZM20.5 23C20.5 22.2044 20.8161 21.4413 21.3787 20.8787C21.9413 20.3161 22.7044 20 23.5 20H29.5C30.2956 20 31.0587 20.3161 31.6213 20.8787C32.1839 21.4413 32.5 22.2044 32.5 23V29C32.5 29.7956 32.1839 30.5587 31.6213 31.1213C31.0587 31.6839 30.2956 32 29.5 32H23.5C22.7044 32 21.9413 31.6839 21.3787 31.1213C20.8161 30.5587 20.5 29.7956 20.5 29V23ZM23.5 22C23.2348 22 22.9804 22.1054 22.7929 22.2929C22.6054 22.4804 22.5 22.7348 22.5 23V29C22.5 29.2652 22.6054 29.5196 22.7929 29.7071C22.9804 29.8946 23.2348 30 23.5 30H29.5C29.7652 30 30.0196 29.8946 30.2071 29.7071C30.3946 29.5196 30.5 29.2652 30.5 29V23C30.5 22.7348 30.3946 22.4804 30.2071 22.2929C30.0196 22.1054 29.7652 22 29.5 22H23.5Z" fill="white"/>
</g>
</g>
<defs>
<clipPath id="clip0_10907_65462">
<rect width="32" height="32" fill="white" transform="translate(10.5 10)"/>
</clipPath>
<clipPath id="clip1_10907_65462">
<rect width="32" height="32" fill="white" transform="translate(10.5 10)"/>
</clipPath>
</defs>
</svg>
