<svg width="52" height="52" viewBox="0 0 52 52" fill="none" xmlns="http://www.w3.org/2000/svg">
<rect width="52" height="52" fill="#0089B9"/>
<g clip-path="url(#clip0_10954_156618)">
<rect width="32" height="32" transform="translate(10 10)" fill="white" fill-opacity="0.01"/>
<g clip-path="url(#clip1_10954_156618)">
<path d="M26 42C27.0609 42 28.0783 41.5786 28.8284 40.8284C29.5786 40.0783 30 39.0609 30 38H22C22 39.0609 22.4214 40.0783 23.1716 40.8284C23.9217 41.5786 24.9391 42 26 42ZM26 13.836L24.406 14.158C22.5979 14.5264 20.9727 15.5082 19.8053 16.9372C18.6379 18.3663 18.0002 20.1548 18 22C18 23.256 17.732 26.394 17.082 29.484C16.762 31.018 16.33 32.616 15.756 34H36.244C35.67 32.616 35.24 31.02 34.918 29.484C34.268 26.394 34 23.256 34 22C33.9993 20.1551 33.3614 18.3671 32.1941 16.9385C31.0267 15.5098 29.4017 14.5283 27.594 14.16L26 13.834V13.836ZM38.44 34C38.886 34.894 39.402 35.602 40 36H12C12.598 35.602 13.114 34.894 13.56 34C15.36 30.4 16 23.76 16 22C16 17.16 19.44 13.12 24.01 12.198C23.9821 11.9199 24.0128 11.639 24.1001 11.3735C24.1874 11.108 24.3293 10.8638 24.5168 10.6565C24.7043 10.4492 24.9332 10.2836 25.1887 10.1702C25.4441 10.0568 25.7205 9.99825 26 9.99825C26.2795 9.99825 26.5559 10.0568 26.8113 10.1702C27.0668 10.2836 27.2957 10.4492 27.4832 10.6565C27.6707 10.8638 27.8126 11.108 27.8999 11.3735C27.9872 11.639 28.0179 11.9199 27.99 12.198C30.2506 12.6578 32.2828 13.8847 33.7425 15.671C35.2022 17.4573 35.9997 19.6931 36 22C36 23.76 36.64 30.4 38.44 34Z" fill="white"/>
</g>
</g>
<defs>
<clipPath id="clip0_10954_156618">
<rect width="32" height="32" fill="white" transform="translate(10 10)"/>
</clipPath>
<clipPath id="clip1_10954_156618">
<rect width="32" height="32" fill="white" transform="translate(10 10)"/>
</clipPath>
</defs>
</svg>
