<svg width="53" height="52" viewBox="0 0 53 52" fill="none" xmlns="http://www.w3.org/2000/svg">
<rect width="52" height="52" transform="translate(0.5)" fill="#653171"/>
<g clip-path="url(#clip0_10907_35919)">
<rect width="32" height="32" transform="translate(10.5 10)" fill="white" fill-opacity="0.01"/>
<g clip-path="url(#clip1_10907_35919)">
<path d="M10.5 18C10.5 16.9391 10.9214 15.9217 11.6716 15.1716C12.4217 14.4214 13.4391 14 14.5 14H38.5C39.5609 14 40.5783 14.4214 41.3284 15.1716C42.0786 15.9217 42.5 16.9391 42.5 18V34C42.5 35.0609 42.0786 36.0783 41.3284 36.8284C40.5783 37.5786 39.5609 38 38.5 38H14.5C13.4391 38 12.4217 37.5786 11.6716 36.8284C10.9214 36.0783 10.5 35.0609 10.5 34V18ZM14.5 16C13.9696 16 13.4609 16.2107 13.0858 16.5858C12.7107 16.9609 12.5 17.4696 12.5 18V20H40.5V18C40.5 17.4696 40.2893 16.9609 39.9142 16.5858C39.5391 16.2107 39.0304 16 38.5 16H14.5ZM40.5 24H12.5V34C12.5 34.5304 12.7107 35.0391 13.0858 35.4142C13.4609 35.7893 13.9696 36 14.5 36H38.5C39.0304 36 39.5391 35.7893 39.9142 35.4142C40.2893 35.0391 40.5 34.5304 40.5 34V24Z" fill="white"/>
<path d="M14.5 30C14.5 29.4696 14.7107 28.9609 15.0858 28.5858C15.4609 28.2107 15.9696 28 16.5 28H18.5C19.0304 28 19.5391 28.2107 19.9142 28.5858C20.2893 28.9609 20.5 29.4696 20.5 30V32C20.5 32.5304 20.2893 33.0391 19.9142 33.4142C19.5391 33.7893 19.0304 34 18.5 34H16.5C15.9696 34 15.4609 33.7893 15.0858 33.4142C14.7107 33.0391 14.5 32.5304 14.5 32V30Z" fill="white"/>
</g>
</g>
<defs>
<clipPath id="clip0_10907_35919">
<rect width="32" height="32" fill="white" transform="translate(10.5 10)"/>
</clipPath>
<clipPath id="clip1_10907_35919">
<rect width="32" height="32" fill="white" transform="translate(10.5 10)"/>
</clipPath>
</defs>
</svg>
