<svg width="53" height="52" viewBox="0 0 53 52" fill="none" xmlns="http://www.w3.org/2000/svg">
<rect width="52" height="52" transform="translate(0.5)" fill="#B13D4A"/>
<g clip-path="url(#clip0_10907_35897)">
<rect width="32" height="32" transform="translate(10.5 10)" fill="white" fill-opacity="0.01"/>
<g clip-path="url(#clip1_10907_35897)">
<path d="M26.5 40C22.787 40 19.226 38.525 16.6005 35.8995C13.975 33.274 12.5 29.713 12.5 26C12.5 22.287 13.975 18.726 16.6005 16.1005C19.226 13.475 22.787 12 26.5 12C30.213 12 33.774 13.475 36.3995 16.1005C39.025 18.726 40.5 22.287 40.5 26C40.5 29.713 39.025 33.274 36.3995 35.8995C33.774 38.525 30.213 40 26.5 40ZM26.5 42C30.7435 42 34.8131 40.3143 37.8137 37.3137C40.8143 34.3131 42.5 30.2435 42.5 26C42.5 21.7565 40.8143 17.6869 37.8137 14.6863C34.8131 11.6857 30.7435 10 26.5 10C22.2565 10 18.1869 11.6857 15.1863 14.6863C12.1857 17.6869 10.5 21.7565 10.5 26C10.5 30.2435 12.1857 34.3131 15.1863 37.3137C18.1869 40.3143 22.2565 42 26.5 42Z" fill="white"/>
<path d="M24.504 32C24.504 31.7374 24.5557 31.4773 24.6562 31.2346C24.7568 30.992 24.9041 30.7715 25.0898 30.5858C25.2755 30.4001 25.496 30.2528 25.7386 30.1522C25.9813 30.0517 26.2414 30 26.504 30C26.7666 30 27.0267 30.0517 27.2694 30.1522C27.512 30.2528 27.7325 30.4001 27.9182 30.5858C28.1039 30.7715 28.2512 30.992 28.3518 31.2346C28.4523 31.4773 28.504 31.7374 28.504 32C28.504 32.5304 28.2933 33.0391 27.9182 33.4142C27.5431 33.7893 27.0344 34 26.504 34C25.9736 34 25.4649 33.7893 25.0898 33.4142C24.7147 33.0391 24.504 32.5304 24.504 32ZM24.7 19.99C24.6734 19.7377 24.7001 19.4826 24.7784 19.2413C24.8567 18.9999 24.9849 18.7778 25.1546 18.5892C25.3244 18.4006 25.5318 18.2498 25.7636 18.1466C25.9954 18.0433 26.2463 17.99 26.5 17.99C26.7537 17.99 27.0046 18.0433 27.2364 18.1466C27.4682 18.2498 27.6756 18.4006 27.8454 18.5892C28.0151 18.7778 28.1433 18.9999 28.2216 19.2413C28.2999 19.4826 28.3266 19.7377 28.3 19.99L27.6 27.004C27.5765 27.2795 27.4504 27.5362 27.2467 27.7233C27.043 27.9103 26.7765 28.0141 26.5 28.0141C26.2235 28.0141 25.957 27.9103 25.7533 27.7233C25.5496 27.5362 25.4235 27.2795 25.4 27.004L24.7 19.99Z" fill="white"/>
</g>
</g>
<defs>
<clipPath id="clip0_10907_35897">
<rect width="32" height="32" fill="white" transform="translate(10.5 10)"/>
</clipPath>
<clipPath id="clip1_10907_35897">
<rect width="32" height="32" fill="white" transform="translate(10.5 10)"/>
</clipPath>
</defs>
</svg>
