<svg width="348" height="183" viewBox="0 0 348 183" fill="none" xmlns="http://www.w3.org/2000/svg">
<g clip-path="url(#clip0_10756_342324)">
<rect width="80" height="80" transform="translate(134)" fill="white" fill-opacity="0.01"/>
<path fill-rule="evenodd" clip-rule="evenodd" d="M194 45V25C194 13.4343 185.531 5 173.968 5C162.405 5 154 13.4343 154 25V45L145.464 53.5355C144.527 54.4732 144 55.745 144 57.0711V58.75C144 59.4404 144.56 60 145.25 60H202.75C203.44 60 204 59.4404 204 58.75V57.0711C204 55.745 203.473 54.4732 202.536 53.5355L194 45ZM189 25V47.0711L196.929 55H151.071L159 47.0711V25C159 16.1856 165.177 10 173.968 10C182.781 10 189 16.2067 189 25Z" fill="#808080"/>
<path d="M179 70C179 72.7614 176.761 75 174 75C171.239 75 169 72.7614 169 70C169 67.2386 171.239 65 174 65C176.761 65 179 67.2386 179 70Z" fill="#808080"/>
</g>
<path d="M74.9841 119H72.0081V102.2H75.2001L84.3921 114.416V102.2H87.3681V119H84.2241L74.9841 106.712V119ZM95.6464 119.384C91.9984 119.384 89.3584 116.648 89.3584 113.096C89.3584 109.544 92.0464 106.808 95.7424 106.808C99.3904 106.808 102.03 109.52 102.03 113.072C102.03 116.624 99.3424 119.384 95.6464 119.384ZM95.6944 116.912C97.6624 116.912 99.1264 115.28 99.1264 113.072C99.1264 110.912 97.6624 109.256 95.6944 109.256C93.7264 109.256 92.2624 110.888 92.2624 113.096C92.2624 115.256 93.7264 116.912 95.6944 116.912ZM110.786 107.144V108.584C111.674 107.48 112.97 106.856 114.65 106.856C117.866 106.856 119.57 109.016 119.57 112.328V119H116.69V112.592C116.69 110.672 115.73 109.352 113.882 109.352C112.034 109.352 110.882 110.768 110.882 112.736V119H108.002V107.144H110.786ZM127.451 119.384C123.803 119.384 121.163 116.648 121.163 113.096C121.163 109.544 123.851 106.808 127.547 106.808C131.195 106.808 133.835 109.52 133.835 113.072C133.835 116.624 131.147 119.384 127.451 119.384ZM127.499 116.912C129.467 116.912 130.931 115.28 130.931 113.072C130.931 110.912 129.467 109.256 127.499 109.256C125.531 109.256 124.067 110.888 124.067 113.096C124.067 115.256 125.531 116.912 127.499 116.912ZM136.216 115.256V109.664H134.632V107.144H136.216V103.784H139.096V107.144H141.736V109.664H139.096V114.968C139.096 116.096 139.6 116.48 140.488 116.48H141.736V119H140.008C137.368 119 136.216 117.92 136.216 115.256ZM146.56 102.2V105.104H143.488V102.2H146.56ZM143.584 107.144H146.464V119H143.584V107.144ZM148.111 109.664V107.144H149.695V105.704C149.695 103.4 150.967 102.2 153.319 102.2H155.143V104.48H153.799C153.007 104.48 152.575 104.864 152.575 105.752V107.144H155.143V109.664H152.575V119H149.695V109.664H148.111ZM159.655 102.2V105.104H156.583V102.2H159.655ZM156.679 107.144H159.559V119H156.679V107.144ZM167.693 119.384C163.853 119.384 161.429 116.816 161.429 113.096C161.429 109.52 164.189 106.808 167.765 106.808C170.429 106.808 172.229 108.08 173.069 110.144L170.741 111.368C170.093 109.952 169.109 109.256 167.741 109.256C165.749 109.256 164.333 110.912 164.333 113.096C164.333 115.328 165.797 116.912 167.837 116.912C169.109 116.912 170.237 116.24 170.981 114.872L173.189 116.072C172.373 117.944 170.333 119.384 167.693 119.384ZM182.72 119V117.512C181.688 118.712 180.2 119.264 178.544 119.264C175.832 119.264 174.128 117.752 174.128 115.592C174.128 113.312 175.832 111.896 179.72 111.896H182.648C182.624 110.096 181.688 109.136 179.936 109.136C178.664 109.136 177.488 109.664 176.384 110.576L175.04 108.704C176.312 107.624 178.016 106.808 180.2 106.808C183.56 106.808 185.456 108.776 185.456 112.112V119H182.72ZM179.696 113.888C177.632 113.888 176.912 114.512 176.912 115.52C176.912 116.384 177.656 117.152 179.096 117.152C180.8 117.152 182.528 116.072 182.648 113.888H179.696ZM188.153 115.256V109.664H186.569V107.144H188.153V103.784H191.033V107.144H193.673V109.664H191.033V114.968C191.033 116.096 191.537 116.48 192.425 116.48H193.673V119H191.945C189.305 119 188.153 117.92 188.153 115.256ZM198.497 102.2V105.104H195.425V102.2H198.497ZM195.521 107.144H198.401V119H195.521V107.144ZM206.553 119.384C202.905 119.384 200.265 116.648 200.265 113.096C200.265 109.544 202.953 106.808 206.649 106.808C210.297 106.808 212.937 109.52 212.937 113.072C212.937 116.624 210.249 119.384 206.553 119.384ZM206.601 116.912C208.569 116.912 210.033 115.28 210.033 113.072C210.033 110.912 208.569 109.256 206.601 109.256C204.633 109.256 203.169 110.888 203.169 113.096C203.169 115.256 204.633 116.912 206.601 116.912ZM217.427 107.144V108.584C218.315 107.48 219.611 106.856 221.291 106.856C224.507 106.856 226.211 109.016 226.211 112.328V119H223.331V112.592C223.331 110.672 222.371 109.352 220.523 109.352C218.675 109.352 217.523 110.768 217.523 112.736V119H214.643V107.144H217.427ZM232.916 119.336C230.876 119.336 228.956 118.688 227.564 117.584L228.74 115.472C230.444 116.6 231.692 117.008 232.988 117.008C234.668 117.008 235.532 116.408 235.532 115.592C235.532 114.776 235.004 114.344 233.06 114.272C229.316 114.056 228.02 112.928 228.02 110.624C228.02 108.488 229.868 106.832 232.964 106.832C234.812 106.832 236.612 107.408 237.86 108.392L236.804 110.48C235.316 109.52 234.068 109.16 232.892 109.16C231.428 109.16 230.684 109.784 230.684 110.504C230.684 111.248 231.164 111.68 232.988 111.776C236.852 111.968 238.196 113.072 238.196 115.448C238.196 117.704 236.204 119.336 232.916 119.336ZM243.263 107.144H246.359L249.647 115.592L252.911 107.144H255.911L249.215 123.32H246.263L248.207 119.096L243.263 107.144ZM263.372 117.032C264.62 117.032 265.868 116.504 266.9 115.352L268.412 116.984C267.14 118.496 265.316 119.384 263.108 119.384C259.364 119.384 256.772 116.864 256.772 113.096C256.772 109.544 259.412 106.808 262.964 106.808C266.492 106.808 268.844 109.28 268.844 112.976C268.844 113.384 268.796 113.768 268.748 114.056H259.724C260.06 115.976 261.548 117.032 263.372 117.032ZM262.964 109.112C261.404 109.112 260.084 110.12 259.724 112.04H265.988C265.724 110.192 264.548 109.112 262.964 109.112ZM271.216 115.256V109.664H269.632V107.144H271.216V103.784H274.096V107.144H276.736V109.664H274.096V114.968C274.096 116.096 274.6 116.48 275.488 116.48H276.736V119H275.008C272.368 119 271.216 117.92 271.216 115.256Z" fill="black"/>
<path d="M74.4697 155.16C76.3037 155.16 77.1997 154.264 77.1997 153.256C77.1997 152.29 76.5837 151.786 74.3157 151.534C71.5017 151.212 70.5917 150.358 70.5917 148.79C70.5917 147.418 71.9217 146.004 74.3857 146.004C75.9397 146.004 77.1157 146.494 78.1657 147.39L77.5217 148.3C76.6257 147.516 75.4917 147.04 74.3717 147.04C72.6777 147.04 71.8097 147.866 71.8097 148.72C71.8097 149.658 72.3837 150.176 74.5117 150.4C77.4657 150.736 78.4177 151.59 78.4177 153.186C78.4177 154.698 77.0457 156.196 74.4557 156.196C72.6777 156.196 71.3617 155.678 70.1997 154.572L70.8577 153.676C72.0057 154.726 73.1677 155.16 74.4697 155.16ZM80.8861 153.844V150.19H79.5701V149.238H80.8861V147.166H82.0621V149.238H84.0221V150.19H82.0621V153.746C82.0621 154.67 82.5241 155.034 83.2801 155.034H84.0221V156H83.0981C81.5581 156 80.8861 155.314 80.8861 153.844ZM90.2051 156V154.46C89.6451 155.552 88.6371 156.168 87.4471 156.168C86.1311 156.168 85.1511 155.356 85.1511 154.166C85.1511 152.892 86.1591 152.066 88.0631 152.066H90.1771V151.968C90.1771 150.652 89.4911 149.966 88.3711 149.966C87.6851 149.966 86.9431 150.288 86.2431 150.862L85.7251 150.092C86.4811 149.42 87.3631 149.028 88.5251 149.028C90.2331 149.028 91.3251 150.064 91.3251 152.01V156H90.2051ZM88.1051 152.85C86.8171 152.85 86.2991 153.382 86.2991 154.124C86.2991 154.782 86.8311 155.3 87.7271 155.3C88.9451 155.3 90.1071 154.32 90.1771 152.85H88.1051ZM92.3669 149.238H93.6269L95.7969 154.866L97.9529 149.238H99.1849L95.2089 158.94H93.9769L95.2229 156.238L92.3669 149.238ZM103.8 153.844V150.19H102.484V149.238H103.8V147.166H104.976V149.238H106.936V150.19H104.976V153.746C104.976 154.67 105.438 155.034 106.194 155.034H106.936V156H106.012C104.472 156 103.8 155.314 103.8 153.844ZM113.555 156V154.614C113.065 155.594 112.169 156.168 111.063 156.168C109.439 156.168 108.501 155.006 108.501 153.368V149.238H109.691V153.298C109.691 154.432 110.293 155.202 111.399 155.202C112.673 155.202 113.527 154.096 113.527 152.542V149.238H114.717V156H113.555ZM117.949 149.238V150.638C118.439 149.644 119.335 149.07 120.441 149.07C122.065 149.07 123.003 150.232 123.003 151.87V156H121.813V151.94C121.813 150.806 121.211 150.036 120.105 150.036C118.831 150.036 117.977 151.142 117.977 152.696V156H116.787V149.238H117.949ZM128.223 155.314C129.063 155.314 129.819 154.992 130.491 154.25L131.121 154.894C130.351 155.776 129.385 156.238 128.125 156.238C126.053 156.238 124.667 154.768 124.667 152.612C124.667 150.54 126.235 149 128.125 149C129.959 149 131.359 150.316 131.359 152.486C131.359 152.682 131.345 152.836 131.331 152.948H125.829C125.969 154.418 127.005 155.314 128.223 155.314ZM128.125 149.91C127.005 149.91 126.025 150.75 125.843 152.15H130.211C130.085 150.666 129.189 149.91 128.125 149.91ZM138.572 156V154.6C137.998 155.566 137.018 156.168 135.898 156.168C134.246 156.168 132.734 154.81 132.734 152.654C132.734 150.47 134.33 149.07 136.01 149.07C137.102 149.07 138.012 149.658 138.544 150.554V145.78H139.734V156H138.572ZM138.586 152.584C138.586 151.128 137.48 150.036 136.248 150.036C134.946 150.036 133.938 151.002 133.938 152.626C133.938 154.222 134.918 155.188 136.206 155.188C137.438 155.188 138.586 154.068 138.586 152.584ZM143.774 150.19V149.238H145.09V147.894C145.09 146.508 145.846 145.78 147.26 145.78H148.198V146.704H147.428C146.714 146.704 146.28 147.068 146.28 147.936V149.238H148.198V150.19H146.28V156H145.09V150.19H143.774ZM152.585 156.238C150.583 156.238 149.071 154.656 149.071 152.598C149.071 150.596 150.597 149 152.627 149C154.629 149 156.141 150.568 156.141 152.64C156.141 154.642 154.615 156.238 152.585 156.238ZM152.613 155.258C153.929 155.258 154.937 154.152 154.937 152.626C154.937 151.1 153.915 149.966 152.599 149.966C151.283 149.966 150.275 151.086 150.275 152.612C150.275 154.138 151.297 155.258 152.613 155.258ZM159.006 149.238V150.862C159.454 149.742 160.364 149.196 161.512 149.196H162.002V150.33H161.484C159.832 150.33 159.034 151.17 159.034 152.906V156H157.844V149.238H159.006ZM168.911 155.314C169.751 155.314 170.507 154.992 171.179 154.25L171.809 154.894C171.039 155.776 170.073 156.238 168.813 156.238C166.741 156.238 165.355 154.768 165.355 152.612C165.355 150.54 166.923 149 168.813 149C170.647 149 172.047 150.316 172.047 152.486C172.047 152.682 172.033 152.836 172.019 152.948H166.517C166.657 154.418 167.693 155.314 168.911 155.314ZM168.813 149.91C167.693 149.91 166.713 150.75 166.531 152.15H170.899C170.773 150.666 169.877 149.91 168.813 149.91ZM172.715 156L175.333 152.514L172.897 149.238H174.283L176.033 151.758L177.825 149.238H179.127L176.691 152.5L179.351 156H177.979L176.005 153.214L174.017 156H172.715ZM183.333 156.238C181.303 156.238 179.847 154.838 179.847 152.626C179.847 150.61 181.387 149 183.417 149C184.831 149 185.811 149.63 186.371 150.862L185.447 151.394C185.013 150.386 184.299 149.966 183.389 149.966C182.073 149.966 181.051 151.142 181.051 152.64C181.051 154.124 182.059 155.258 183.389 155.258C184.257 155.258 185.069 154.796 185.545 153.9L186.427 154.39C185.881 155.524 184.747 156.238 183.333 156.238ZM189.402 146.312V147.586H188.072V146.312H189.402ZM188.142 149.238H189.332V156H188.142V149.238ZM192.12 153.844V150.19H190.804V149.238H192.12V147.166H193.296V149.238H195.256V150.19H193.296V153.746C193.296 154.67 193.758 155.034 194.514 155.034H195.256V156H194.332C192.792 156 192.12 155.314 192.12 153.844ZM198.193 146.312V147.586H196.863V146.312H198.193ZM196.933 149.238H198.123V156H196.933V149.238ZM201.429 149.238V150.638C201.919 149.644 202.815 149.07 203.921 149.07C205.545 149.07 206.483 150.232 206.483 151.87V156H205.293V151.94C205.293 150.806 204.691 150.036 203.585 150.036C202.311 150.036 201.457 151.142 201.457 152.696V156H200.267V149.238H201.429ZM213.986 155.286V154.404C213.398 155.328 212.46 155.902 211.34 155.902C209.688 155.902 208.148 154.6 208.148 152.5C208.148 150.428 209.688 149.07 211.438 149.07C212.53 149.07 213.426 149.658 214 150.596V149.238H215.162V155.356C215.162 157.652 214.028 158.94 211.158 158.94H209.828V157.988H211.214C213.16 157.988 213.986 157.05 213.986 155.286ZM214.028 152.514C214.028 151.128 212.894 150.036 211.662 150.036C210.346 150.036 209.352 150.932 209.352 152.486C209.352 153.998 210.346 154.936 211.662 154.936C212.908 154.936 214.028 153.872 214.028 152.514ZM224.83 156V154.614C224.34 155.594 223.444 156.168 222.338 156.168C220.714 156.168 219.776 155.006 219.776 153.368V149.238H220.966V153.298C220.966 154.432 221.568 155.202 222.674 155.202C223.948 155.202 224.802 154.096 224.802 152.542V149.238H225.992V156H224.83ZM231.786 156.168C230.694 156.168 229.784 155.566 229.252 154.67V158.94H228.062V149.238H229.224V150.624C229.798 149.658 230.792 149.07 231.898 149.07C233.536 149.07 235.048 150.414 235.048 152.584C235.048 154.768 233.466 156.168 231.786 156.168ZM229.196 152.654C229.196 154.096 230.316 155.188 231.548 155.188C232.85 155.188 233.858 154.236 233.858 152.612C233.858 151.002 232.864 150.036 231.59 150.036C230.344 150.036 229.196 151.17 229.196 152.654ZM242.245 156V154.6C241.671 155.566 240.691 156.168 239.571 156.168C237.919 156.168 236.407 154.81 236.407 152.654C236.407 150.47 238.003 149.07 239.683 149.07C240.775 149.07 241.685 149.658 242.217 150.554V145.78H243.407V156H242.245ZM242.259 152.584C242.259 151.128 241.153 150.036 239.921 150.036C238.619 150.036 237.611 151.002 237.611 152.626C237.611 154.222 238.591 155.188 239.879 155.188C241.111 155.188 242.259 154.068 242.259 152.584ZM249.988 156V154.46C249.428 155.552 248.42 156.168 247.23 156.168C245.914 156.168 244.934 155.356 244.934 154.166C244.934 152.892 245.942 152.066 247.846 152.066H249.96V151.968C249.96 150.652 249.274 149.966 248.154 149.966C247.468 149.966 246.726 150.288 246.026 150.862L245.508 150.092C246.264 149.42 247.146 149.028 248.308 149.028C250.016 149.028 251.108 150.064 251.108 152.01V156H249.988ZM247.888 152.85C246.6 152.85 246.082 153.382 246.082 154.124C246.082 154.782 246.614 155.3 247.51 155.3C248.728 155.3 249.89 154.32 249.96 152.85H247.888ZM253.617 153.844V150.19H252.301V149.238H253.617V147.166H254.793V149.238H256.753V150.19H254.793V153.746C254.793 154.67 255.255 155.034 256.011 155.034H256.753V156H255.829C254.289 156 253.617 155.314 253.617 153.844ZM261.456 155.314C262.296 155.314 263.052 154.992 263.724 154.25L264.354 154.894C263.584 155.776 262.618 156.238 261.358 156.238C259.286 156.238 257.9 154.768 257.9 152.612C257.9 150.54 259.468 149 261.358 149C263.192 149 264.592 150.316 264.592 152.486C264.592 152.682 264.578 152.836 264.564 152.948H259.062C259.202 154.418 260.238 155.314 261.456 155.314ZM261.358 149.91C260.238 149.91 259.258 150.75 259.076 152.15H263.444C263.318 150.666 262.422 149.91 261.358 149.91ZM271.706 154.096C271.706 155.23 270.614 156.196 268.794 156.196C267.688 156.196 266.694 155.874 265.854 155.258L266.344 154.418C267.212 154.992 268.052 155.286 268.808 155.286C270.026 155.286 270.614 154.768 270.614 154.138C270.614 153.564 270.236 153.2 268.766 153.046C266.834 152.85 266.106 152.206 266.106 151.002C266.106 149.98 267.142 149.042 268.794 149.042C269.83 149.042 270.684 149.336 271.51 149.91L271.062 150.778C270.208 150.204 269.508 149.952 268.766 149.952C267.744 149.952 267.198 150.442 267.198 150.96C267.198 151.506 267.548 151.884 268.878 152.01C270.936 152.22 271.706 152.864 271.706 154.096ZM273.72 153.242L273.398 146.2H274.882L274.56 153.242H273.72ZM274.896 154.572V156H273.412V154.572H274.896ZM58.6541 177H57.4501V167.2H59.0741L64.8841 175.6V167.2H66.0741V177H64.4921L58.6541 168.544V177ZM71.559 177.238C69.557 177.238 68.045 175.656 68.045 173.598C68.045 171.596 69.571 170 71.601 170C73.603 170 75.115 171.568 75.115 173.64C75.115 175.642 73.589 177.238 71.559 177.238ZM71.587 176.258C72.903 176.258 73.911 175.152 73.911 173.626C73.911 172.1 72.889 170.966 71.573 170.966C70.257 170.966 69.249 172.086 69.249 173.612C69.249 175.138 70.271 176.258 71.587 176.258ZM80.5632 170.238V171.638C81.0532 170.644 81.9492 170.07 83.0552 170.07C84.6792 170.07 85.6172 171.232 85.6172 172.87V177H84.4272V172.94C84.4272 171.806 83.8252 171.036 82.7192 171.036C81.4452 171.036 80.5912 172.142 80.5912 173.696V177H79.4012V170.238H80.5632ZM90.8374 176.314C91.6774 176.314 92.4334 175.992 93.1054 175.25L93.7354 175.894C92.9654 176.776 91.9994 177.238 90.7394 177.238C88.6674 177.238 87.2814 175.768 87.2814 173.612C87.2814 171.54 88.8494 170 90.7394 170C92.5734 170 93.9734 171.316 93.9734 173.486C93.9734 173.682 93.9594 173.836 93.9454 173.948H88.4434C88.5834 175.418 89.6194 176.314 90.8374 176.314ZM90.7394 170.91C89.6194 170.91 88.6394 171.75 88.4574 173.15H92.8254C92.6994 171.666 91.8034 170.91 90.7394 170.91ZM103.47 177H102.084L100.166 171.288L98.2198 177H96.8338L95.0557 170.238H96.2178L97.6178 175.992L99.5218 170.238H100.838L102.742 175.95L104.128 170.238H105.276L103.47 177ZM110.518 170.238V171.638C111.008 170.644 111.904 170.07 113.01 170.07C114.634 170.07 115.572 171.232 115.572 172.87V177H114.382V172.94C114.382 171.806 113.78 171.036 112.674 171.036C111.4 171.036 110.546 172.142 110.546 173.696V177H109.356V170.238H110.518ZM120.75 177.238C118.748 177.238 117.236 175.656 117.236 173.598C117.236 171.596 118.762 170 120.792 170C122.794 170 124.306 171.568 124.306 173.64C124.306 175.642 122.78 177.238 120.75 177.238ZM120.778 176.258C122.094 176.258 123.102 175.152 123.102 173.626C123.102 172.1 122.08 170.966 120.764 170.966C119.448 170.966 118.44 172.086 118.44 173.612C118.44 175.138 119.462 176.258 120.778 176.258ZM126.584 174.844V171.19H125.268V170.238H126.584V168.166H127.76V170.238H129.72V171.19H127.76V174.746C127.76 175.67 128.222 176.034 128.978 176.034H129.72V177H128.796C127.256 177 126.584 176.314 126.584 174.844ZM132.657 167.312V168.586H131.327V167.312H132.657ZM131.397 170.238H132.587V177H131.397V170.238ZM134.115 171.19V170.238H135.431V168.894C135.431 167.508 136.187 166.78 137.601 166.78H138.539V167.704H137.769C137.055 167.704 136.621 168.068 136.621 168.936V170.238H138.539V171.19H136.621V177H135.431V171.19H134.115ZM141.241 167.312V168.586H139.911V167.312H141.241ZM139.981 170.238H141.171V177H139.981V170.238ZM146.439 177.238C144.409 177.238 142.953 175.838 142.953 173.626C142.953 171.61 144.493 170 146.523 170C147.937 170 148.917 170.63 149.477 171.862L148.553 172.394C148.119 171.386 147.405 170.966 146.495 170.966C145.179 170.966 144.157 172.142 144.157 173.64C144.157 175.124 145.165 176.258 146.495 176.258C147.363 176.258 148.175 175.796 148.651 174.9L149.533 175.39C148.987 176.524 147.853 177.238 146.439 177.238ZM155.687 177V175.46C155.127 176.552 154.119 177.168 152.929 177.168C151.613 177.168 150.633 176.356 150.633 175.166C150.633 173.892 151.641 173.066 153.545 173.066H155.659V172.968C155.659 171.652 154.973 170.966 153.853 170.966C153.167 170.966 152.425 171.288 151.725 171.862L151.207 171.092C151.963 170.42 152.845 170.028 154.007 170.028C155.715 170.028 156.807 171.064 156.807 173.01V177H155.687ZM153.587 173.85C152.299 173.85 151.781 174.382 151.781 175.124C151.781 175.782 152.313 176.3 153.209 176.3C154.427 176.3 155.589 175.32 155.659 173.85H153.587ZM159.315 174.844V171.19H157.999V170.238H159.315V168.166H160.491V170.238H162.451V171.19H160.491V174.746C160.491 175.67 160.953 176.034 161.709 176.034H162.451V177H161.527C159.987 177 159.315 176.314 159.315 174.844ZM165.387 167.312V168.586H164.057V167.312H165.387ZM164.127 170.238H165.317V177H164.127V170.238ZM170.612 177.238C168.61 177.238 167.098 175.656 167.098 173.598C167.098 171.596 168.624 170 170.654 170C172.656 170 174.168 171.568 174.168 173.64C174.168 175.642 172.642 177.238 170.612 177.238ZM170.64 176.258C171.956 176.258 172.964 175.152 172.964 173.626C172.964 172.1 171.942 170.966 170.626 170.966C169.31 170.966 168.302 172.086 168.302 173.612C168.302 175.138 169.324 176.258 170.64 176.258ZM177.032 170.238V171.638C177.522 170.644 178.418 170.07 179.524 170.07C181.148 170.07 182.086 171.232 182.086 172.87V177H180.896V172.94C180.896 171.806 180.294 171.036 179.188 171.036C177.914 171.036 177.06 172.142 177.06 173.696V177H175.87V170.238H177.032ZM189.49 175.096C189.49 176.23 188.398 177.196 186.578 177.196C185.472 177.196 184.478 176.874 183.638 176.258L184.128 175.418C184.996 175.992 185.836 176.286 186.592 176.286C187.81 176.286 188.398 175.768 188.398 175.138C188.398 174.564 188.02 174.2 186.55 174.046C184.618 173.85 183.89 173.206 183.89 172.002C183.89 170.98 184.926 170.042 186.578 170.042C187.614 170.042 188.468 170.336 189.294 170.91L188.846 171.778C187.992 171.204 187.292 170.952 186.55 170.952C185.528 170.952 184.982 171.442 184.982 171.96C184.982 172.506 185.332 172.884 186.662 173.01C188.72 173.22 189.49 173.864 189.49 175.096ZM198.274 177V175.46C197.714 176.552 196.706 177.168 195.516 177.168C194.2 177.168 193.22 176.356 193.22 175.166C193.22 173.892 194.228 173.066 196.132 173.066H198.246V172.968C198.246 171.652 197.56 170.966 196.44 170.966C195.754 170.966 195.012 171.288 194.312 171.862L193.794 171.092C194.55 170.42 195.432 170.028 196.594 170.028C198.302 170.028 199.394 171.064 199.394 173.01V177H198.274ZM196.174 173.85C194.886 173.85 194.368 174.382 194.368 175.124C194.368 175.782 194.9 176.3 195.796 176.3C197.014 176.3 198.176 175.32 198.246 173.85H196.174ZM201.903 174.844V171.19H200.587V170.238H201.903V168.166H203.079V170.238H205.039V171.19H203.079V174.746C203.079 175.67 203.541 176.034 204.297 176.034H205.039V177H204.115C202.575 177 201.903 176.314 201.903 174.844ZM209.873 174.844V171.19H208.557V170.238H209.873V168.166H211.049V170.238H213.009V171.19H211.049V174.746C211.049 175.67 211.511 176.034 212.267 176.034H213.009V177H212.085C210.545 177 209.873 176.314 209.873 174.844ZM215.806 166.78V171.568C216.31 170.616 217.192 170.07 218.256 170.07C219.894 170.07 220.832 171.246 220.832 172.898V177H219.642V172.968C219.642 171.82 219.04 171.036 217.934 171.036C216.66 171.036 215.806 172.142 215.806 173.696V177H214.616V166.78H215.806ZM226.052 176.314C226.892 176.314 227.648 175.992 228.32 175.25L228.95 175.894C228.18 176.776 227.214 177.238 225.954 177.238C223.882 177.238 222.496 175.768 222.496 173.612C222.496 171.54 224.064 170 225.954 170C227.788 170 229.188 171.316 229.188 173.486C229.188 173.682 229.174 173.836 229.16 173.948H223.658C223.798 175.418 224.834 176.314 226.052 176.314ZM225.954 170.91C224.834 170.91 223.854 171.75 223.672 173.15H228.04C227.914 171.666 227.018 170.91 225.954 170.91ZM234.673 170.238V171.61C235.149 170.63 236.017 170.07 237.053 170.07C238.257 170.07 239.055 170.7 239.405 171.694C239.881 170.644 240.805 170.07 241.939 170.07C243.591 170.07 244.487 171.246 244.487 172.898V177H243.297V172.968C243.297 171.82 242.737 171.036 241.617 171.036C240.413 171.036 239.587 172.142 239.587 173.696V177H238.411V172.968C238.411 171.82 237.837 171.036 236.731 171.036C235.513 171.036 234.701 172.142 234.701 173.696V177H233.511V170.238H234.673ZM249.663 177.238C247.661 177.238 246.149 175.656 246.149 173.598C246.149 171.596 247.675 170 249.705 170C251.707 170 253.219 171.568 253.219 173.64C253.219 175.642 251.693 177.238 249.663 177.238ZM249.691 176.258C251.007 176.258 252.015 175.152 252.015 173.626C252.015 172.1 250.993 170.966 249.677 170.966C248.361 170.966 247.353 172.086 247.353 173.612C247.353 175.138 248.375 176.258 249.691 176.258ZM256.083 170.238V171.61C256.559 170.63 257.427 170.07 258.463 170.07C259.667 170.07 260.465 170.7 260.815 171.694C261.291 170.644 262.215 170.07 263.349 170.07C265.001 170.07 265.897 171.246 265.897 172.898V177H264.707V172.968C264.707 171.82 264.147 171.036 263.027 171.036C261.823 171.036 260.997 172.142 260.997 173.696V177H259.821V172.968C259.821 171.82 259.247 171.036 258.141 171.036C256.923 171.036 256.111 172.142 256.111 173.696V177H254.921V170.238H256.083ZM271.115 176.314C271.955 176.314 272.711 175.992 273.383 175.25L274.013 175.894C273.243 176.776 272.277 177.238 271.017 177.238C268.945 177.238 267.559 175.768 267.559 173.612C267.559 171.54 269.127 170 271.017 170C272.851 170 274.251 171.316 274.251 173.486C274.251 173.682 274.237 173.836 274.223 173.948H268.721C268.861 175.418 269.897 176.314 271.115 176.314ZM271.017 170.91C269.897 170.91 268.917 171.75 268.735 173.15H273.103C272.977 171.666 272.081 170.91 271.017 170.91ZM277.151 170.238V171.638C277.641 170.644 278.537 170.07 279.643 170.07C281.267 170.07 282.205 171.232 282.205 172.87V177H281.015V172.94C281.015 171.806 280.413 171.036 279.307 171.036C278.033 171.036 277.179 172.142 277.179 173.696V177H275.989V170.238H277.151ZM284.877 174.844V171.19H283.561V170.238H284.877V168.166H286.053V170.238H288.013V171.19H286.053V174.746C286.053 175.67 286.515 176.034 287.271 176.034H288.013V177H287.089C285.549 177 284.877 176.314 284.877 174.844ZM290.95 175.474V177H289.452V175.474H290.95Z" fill="black" fill-opacity="0.8"/>
<defs>
<clipPath id="clip0_10756_342324">
<rect width="80" height="80" fill="white" transform="translate(134)"/>
</clipPath>
</defs>
</svg>
