<svg width="24" height="24" viewBox="0 0 24 24" fill="none" xmlns="http://www.w3.org/2000/svg">
<g clip-path="url(#clip0_11905_6786)">
<path d="M11.9995 22.4993C9.21474 22.4993 6.54402 21.393 4.57489 19.4239C2.60576 17.4548 1.49951 14.784 1.49951 11.9993C1.49951 9.21449 2.60576 6.54378 4.57489 4.57465C6.54402 2.60551 9.21474 1.49927 11.9995 1.49927C14.7843 1.49927 17.455 2.60551 19.4241 4.57465C21.3933 6.54378 22.4995 9.21449 22.4995 11.9993C22.4995 14.784 21.3933 17.4548 19.4241 19.4239C17.455 21.393 14.7843 22.4993 11.9995 22.4993ZM11.9995 23.9993C15.1821 23.9993 18.2344 22.735 20.4848 20.4846C22.7352 18.2341 23.9995 15.1819 23.9995 11.9993C23.9995 8.81667 22.7352 5.76442 20.4848 3.51399C18.2344 1.26355 15.1821 -0.000732422 11.9995 -0.000732422C8.81691 -0.000732422 5.76467 1.26355 3.51423 3.51399C1.26379 5.76442 -0.000488281 8.81667 -0.000488281 11.9993C-0.000488281 15.1819 1.26379 18.2341 3.51423 20.4846C5.76467 22.735 8.81691 23.9993 11.9995 23.9993Z" fill="#664D03"/>
<path d="M13.3945 9.88127L9.95951 10.3118L9.83651 10.8818L10.5115 11.0063C10.9525 11.1113 11.0395 11.2703 10.9435 11.7098L9.83651 16.9118C9.54551 18.2573 9.99401 18.8903 11.0485 18.8903C11.866 18.8903 12.8155 18.5123 13.246 17.9933L13.378 17.3693C13.078 17.6333 12.64 17.7383 12.349 17.7383C11.9365 17.7383 11.7865 17.4488 11.893 16.9388L13.3945 9.88127ZM13.4995 6.74927C13.4995 7.14709 13.3415 7.52862 13.0602 7.80993C12.7789 8.09123 12.3973 8.24927 11.9995 8.24927C11.6017 8.24927 11.2202 8.09123 10.9389 7.80993C10.6575 7.52862 10.4995 7.14709 10.4995 6.74927C10.4995 6.35144 10.6575 5.96991 10.9389 5.68861C11.2202 5.4073 11.6017 5.24927 11.9995 5.24927C12.3973 5.24927 12.7789 5.4073 13.0602 5.68861C13.3415 5.96991 13.4995 6.35144 13.4995 6.74927Z" fill="#664D03"/>
</g>
<defs>
<clipPath id="clip0_11905_6786">
<rect width="24" height="24" fill="white"/>
</clipPath>
</defs>
</svg>
