<svg xmlns="http://www.w3.org/2000/svg" stroke="currentColor" fill="currentColor" stroke-width="0" viewBox="0 0 16 16" height="1em" width="1em">
<g clip-path="url(#clip0_14794_14260)">
<rect width="16" height="16" fill="white" fill-opacity="0.01"/>
<path d="M6.5 3.5L6.5 4.5H5.5V3.5H6.5Z" fill="currentcolor"/>
<path d="M10.5312 3.5V4.5L7.5 4.5V3.5L10.5312 3.5Z" fill="currentcolor"/>
<path d="M6.5 7.5L6.5 8.5H5.5V7.5H6.5Z" fill="currentcolor"/>
<path d="M10.5312 8.5V7.5H7.5V8.5H10.5312Z" fill="currentcolor"/>
<path d="M6.5 12.5L6.5 11.5H5.5V12.5H6.5Z" fill="currentcolor"/>
<path d="M10.5312 11.5V12.5H7.5V11.5H10.5312Z" fill="currentcolor"/>
<path fill-rule="evenodd" clip-rule="evenodd" d="M3 1.25C3 1.11193 3.11193 1 3.25 1H12.75C12.8881 1 13 1.11193 13 1.25V15.75C13 15.8881 12.8881 16 12.75 16H10V15H6V16H3.25C3.11193 16 3 15.8881 3 15.75V1.25ZM4.5 2.5H11.5V5.5H4.5V2.5ZM11.5 6.5H4.5V9.5H11.5V6.5ZM4.5 10.5H11.5V13.5H4.5V10.5Z" fill="currentcolor"/>
<path d="M1.75 2C1.88807 2 2 2.11193 2 2.25V3.5H1.5V5.5H2V6.5H1.5V8.5H2V9.5H1.5V11.5H2V13.75C2 13.8881 1.88807 14 1.75 14H0.25C0.111929 14 0 13.8881 0 13.75V2.25C0 2.11193 0.111929 2 0.25 2H1.75Z" fill="currentcolor"/>
<path d="M14 2.25C14 2.11193 14.1119 2 14.25 2H15.75C15.8881 2 16 2.11193 16 2.25V13.75C16 13.8881 15.8881 14 15.75 14H14.25C14.1119 14 14 13.8881 14 13.75V11.5H14.5V9.5H14V8.5H14.5V6.5H14V5.5H14.5V3.5H14V2.25Z" fill="currentcolor"/>
</g>
<defs>
<clipPath id="clip0_14794_14260">
<rect width="16" height="16" fill="white"/>
</clipPath>
</defs>
</svg>