<svg width="16" height="16" viewBox="0 0 16 16" fill="none" xmlns="http://www.w3.org/2000/svg">
<path fill-rule="evenodd" clip-rule="evenodd" d="M7.99947 2.99911C6.91882 2.99953 5.8674 3.35004 5.00268 3.99815C4.13795 4.64626 3.50648 5.55708 3.20283 6.59419C2.89919 7.6313 2.93972 8.73887 3.31836 9.75101C3.69699 10.7631 4.39335 11.6254 5.30313 12.2085C6.21291 12.7917 7.28715 13.0644 8.36493 12.9859C9.44272 12.9073 10.466 12.4817 11.2816 11.7727C12.0972 11.0638 12.6612 10.1097 12.889 9.05331C13.1168 7.99695 12.9963 6.89522 12.5455 5.91311C12.4964 5.7937 12.4954 5.65995 12.5427 5.53983C12.59 5.41972 12.682 5.32255 12.7993 5.26868C12.9166 5.2148 13.0502 5.20838 13.1721 5.25078C13.2941 5.29317 13.3949 5.38108 13.4535 5.49611C13.9945 6.6747 14.139 7.99684 13.8655 9.26449C13.592 10.5321 12.9152 11.6771 11.9364 12.5278C10.9576 13.3785 9.72951 13.8891 8.43611 13.9833C7.14271 14.0774 5.85363 13.75 4.76194 13.05C3.67025 12.3501 2.83473 11.3152 2.38053 10.1006C1.92633 8.88587 1.8779 7.55673 2.2425 6.31222C2.6071 5.06771 3.3651 3.97482 4.40295 3.19726C5.44081 2.4197 6.70265 1.99933 7.99947 1.99911V2.99911Z" fill="#1E2EB8"/>
<path d="M7.99947 4.46511V0.53311C7.99949 0.485606 8.01304 0.439091 8.03854 0.399011C8.06404 0.358931 8.10042 0.326945 8.14345 0.306799C8.18647 0.286653 8.23433 0.279181 8.28145 0.285257C8.32856 0.291334 8.37297 0.310707 8.40947 0.34111L10.7695 2.30711C10.8895 2.40711 10.8895 2.59111 10.7695 2.69111L8.40947 4.65711C8.37297 4.68751 8.32856 4.70689 8.28145 4.71296C8.23433 4.71904 8.18647 4.71157 8.14345 4.69142C8.10042 4.67127 8.06404 4.63929 8.03854 4.59921C8.01304 4.55913 7.99949 4.51261 7.99947 4.46511Z" fill="#1E2EB8"/>
</svg>
