<svg width="121" height="120" viewBox="0 0 121 120" fill="none" xmlns="http://www.w3.org/2000/svg">
<path d="M28.8804 88.6406C23.9116 88.6406 19.8804 84.6094 19.8804 79.6406C19.8804 74.6719 23.9116 70.6406 28.8804 70.6406C33.8491 70.6406 37.8804 74.6719 37.8804 79.6406C37.8804 84.6094 33.8491 88.6406 28.8804 88.6406ZM28.8804 75.1406C26.396 75.1406 24.3804 77.1562 24.3804 79.6406C24.3804 82.125 26.396 84.1406 28.8804 84.1406C31.3647 84.1406 33.3804 82.125 33.3804 79.6406C33.3804 77.1562 31.3647 75.1406 28.8804 75.1406Z" fill="url(#paint0_linear_13355_8976)"/>
<path d="M53.5835 88.6406C48.6147 88.6406 44.5835 84.6094 44.5835 79.6406C44.5835 74.6719 48.6147 70.6406 53.5835 70.6406C58.5522 70.6406 62.5835 74.6719 62.5835 79.6406C62.5835 84.6094 58.5522 88.6406 53.5835 88.6406ZM53.5835 75.1406C51.0991 75.1406 49.0835 77.1562 49.0835 79.6406C49.0835 82.125 51.0991 84.1406 53.5835 84.1406C56.0679 84.1406 58.0835 82.125 58.0835 79.6406C58.0835 77.1562 56.0679 75.1406 53.5835 75.1406Z" fill="url(#paint1_linear_13355_8976)"/>
<path d="M49.0835 93.1406H33.3804V97.6406H49.0835V93.1406Z" fill="url(#paint2_linear_13355_8976)"/>
<path d="M71.5835 106.594H10.9272V90.4688C8.30225 89.5312 6.42725 87.0469 6.42725 84.0938V77.3438C6.42725 74.4375 8.30225 71.9062 10.9272 70.9688V63.8438C10.9272 57.6562 15.9429 52.5938 22.1772 52.5938H53.6304V57.0938H22.1304C18.4272 57.0938 15.3804 60.1406 15.3804 63.8438V75.0938H13.1304C11.9116 75.0938 10.8804 76.0781 10.8804 77.3438V84.0938C10.8804 85.3125 11.9116 86.3438 13.1304 86.3438H15.3804V102.047H67.0366V86.3438H69.2866C70.5054 86.3438 71.5366 85.3594 71.5366 84.0938V79.5938H76.0366V84.0938C76.0366 87 74.1616 89.5312 71.5366 90.4688V106.594H71.5835Z" fill="url(#paint3_linear_13355_8976)"/>
<path d="M42.3804 39.2344H37.8804V54.9375H42.3804V39.2344Z" fill="url(#paint4_linear_13355_8976)"/>
<path d="M71.5835 77.3906C71.1147 77.3906 70.5991 77.2969 70.1304 77.1563C68.2554 76.5469 67.0366 74.8594 67.0366 72.8906V63.8906H62.5366C58.8335 63.8906 55.7866 60.8906 55.7866 57.1406V23.4844C55.7866 19.7812 58.7866 16.7344 62.5366 16.7344H107.443C111.146 16.7344 114.193 19.7344 114.193 23.4844V57.1875C114.193 60.8906 111.193 63.9375 107.443 63.9375H83.8647L75.0991 75.6094C74.3022 76.7813 72.9897 77.3906 71.5835 77.3906ZM62.5835 21.2344C61.3647 21.2344 60.3335 22.2656 60.3335 23.4844V57.1875C60.3335 58.4062 61.3179 59.4375 62.5835 59.4375H69.3335C69.9429 59.4375 70.5054 59.6719 70.9272 60.0938C71.3491 60.5156 71.5835 61.0781 71.5835 61.6875V72.9375L81.0054 60.375C81.4272 59.8125 82.0835 59.4844 82.7866 59.4844H107.49C108.708 59.4844 109.74 58.5 109.74 57.2344V23.4844C109.74 22.2656 108.755 21.2344 107.49 21.2344H62.5835Z" fill="url(#paint5_linear_13355_8976)"/>
<path d="M87.2866 50.4375H82.7866V54.9375H87.2866V50.4375Z" fill="url(#paint6_linear_13355_8976)"/>
<path d="M87.4741 48.1875H82.9741C82.9741 44.3438 83.6304 41.7187 87.0522 39C88.271 38.0156 89.5366 36.1406 89.5366 34.6406C89.5366 33.3281 89.1147 32.2031 88.3179 31.4531C87.521 30.6562 86.4429 30.2344 85.1304 30.2344C82.3647 30.2344 80.7241 31.875 80.7241 34.6406H76.2241C76.2241 29.3906 79.8804 25.7344 85.1304 25.7344C87.6147 25.7344 89.8647 26.625 91.5054 28.2656C93.146 29.9062 94.0366 32.1562 94.0366 34.6406C94.0366 37.7812 91.9272 40.875 89.8647 42.5156C87.896 44.0625 87.4741 45.0938 87.4741 48.1875Z" fill="url(#paint7_linear_13355_8976)"/>
<defs>
<linearGradient id="paint0_linear_13355_8976" x1="60.3101" y1="16.7344" x2="60.3101" y2="106.594" gradientUnits="userSpaceOnUse">
<stop stop-color="#8F5DA2"/>
<stop offset="1" stop-color="#653171"/>
</linearGradient>
<linearGradient id="paint1_linear_13355_8976" x1="60.3101" y1="16.7344" x2="60.3101" y2="106.594" gradientUnits="userSpaceOnUse">
<stop stop-color="#8F5DA2"/>
<stop offset="1" stop-color="#653171"/>
</linearGradient>
<linearGradient id="paint2_linear_13355_8976" x1="60.3101" y1="16.7344" x2="60.3101" y2="106.594" gradientUnits="userSpaceOnUse">
<stop stop-color="#8F5DA2"/>
<stop offset="1" stop-color="#653171"/>
</linearGradient>
<linearGradient id="paint3_linear_13355_8976" x1="60.3101" y1="16.7344" x2="60.3101" y2="106.594" gradientUnits="userSpaceOnUse">
<stop stop-color="#8F5DA2"/>
<stop offset="1" stop-color="#653171"/>
</linearGradient>
<linearGradient id="paint4_linear_13355_8976" x1="60.3101" y1="16.7344" x2="60.3101" y2="106.594" gradientUnits="userSpaceOnUse">
<stop stop-color="#8F5DA2"/>
<stop offset="1" stop-color="#653171"/>
</linearGradient>
<linearGradient id="paint5_linear_13355_8976" x1="60.3101" y1="16.7344" x2="60.3101" y2="106.594" gradientUnits="userSpaceOnUse">
<stop stop-color="#8F5DA2"/>
<stop offset="1" stop-color="#653171"/>
</linearGradient>
<linearGradient id="paint6_linear_13355_8976" x1="60.3101" y1="16.7344" x2="60.3101" y2="106.594" gradientUnits="userSpaceOnUse">
<stop stop-color="#8F5DA2"/>
<stop offset="1" stop-color="#653171"/>
</linearGradient>
<linearGradient id="paint7_linear_13355_8976" x1="60.3101" y1="16.7344" x2="60.3101" y2="106.594" gradientUnits="userSpaceOnUse">
<stop stop-color="#8F5DA2"/>
<stop offset="1" stop-color="#653171"/>
</linearGradient>
</defs>
</svg>
