<svg width="80" height="81" viewBox="0 0 80 81" fill="none" xmlns="http://www.w3.org/2000/svg">
<g id="Rocket" clip-path="url(#clip0_10866_464795)">
<g id="g632">
<path id="path362-6-2 (Stroke)" fill-rule="evenodd" clip-rule="evenodd" d="M79.9976 1.73685L78.8369 1.66309L78.7631 0.502344C79.0966 0.481155 79.4231 0.604398 79.6593 0.840663C79.8956 1.07693 80.0188 1.40339 79.9976 1.73685ZM26.7307 61.213C27.0785 62.3229 27.0788 62.3228 27.0792 62.3227L27.0803 62.3223L27.0841 62.3211L27.0977 62.3168L27.1487 62.3006C27.1932 62.2864 27.2583 62.2654 27.3432 62.2377C27.5129 62.1824 27.7617 62.1001 28.0816 61.9913C28.7215 61.7737 29.6465 61.4497 30.7945 61.022C33.0897 60.1667 36.2802 58.895 39.8674 57.2269C47.0193 53.9013 55.8418 48.9579 62.2636 42.5361C70.3816 34.4181 74.805 24.2022 77.2016 16.0703C78.4021 11.9968 79.1 8.42593 79.4981 5.86992C79.6973 4.5914 79.8217 3.56533 79.8965 2.85552C79.934 2.50057 79.959 2.22458 79.9748 2.03551C79.9827 1.94097 79.9883 1.86815 79.992 1.81805L79.9961 1.76004L79.9972 1.74405L79.9975 1.73934L79.9976 1.73685C79.9977 1.73632 79.9976 1.73685 78.8369 1.66309C78.7631 0.502344 78.7637 0.50231 78.7631 0.502344L78.7606 0.502504L78.7559 0.502812L78.7399 0.503888L78.6819 0.508012C78.6318 0.511687 78.559 0.517279 78.4645 0.525179C78.2754 0.54098 77.9994 0.56602 77.6445 0.603442C76.9347 0.678278 75.9086 0.802685 74.6301 1.00185C72.0741 1.40002 68.5032 2.0979 64.4297 3.29839C56.2978 5.69495 46.0819 10.1184 37.9639 18.2364C31.5421 24.6582 26.5986 33.4807 23.273 40.6326C21.605 44.2198 20.3333 47.4103 19.478 49.7055C19.0502 50.8535 18.7263 51.7785 18.5086 52.4184C18.3998 52.7383 18.3176 52.9871 18.2622 53.1568C18.2346 53.2417 18.2136 53.3069 18.1994 53.3513L18.1832 53.4023L18.1789 53.4159L18.1773 53.4209C18.1772 53.4212 18.1771 53.4215 19.287 53.7693L18.1773 53.4209C18.0478 53.834 18.1584 54.2856 18.4646 54.5917L25.9083 62.0354C26.2145 62.3416 26.666 62.4521 27.0792 62.3227L26.7307 61.213ZM20.6147 53.4522L27.0478 59.8852C27.1348 59.8561 27.2298 59.824 27.3327 59.789C27.9533 59.5779 28.8572 59.2615 29.9822 58.8422C32.2332 58.0034 35.3658 56.7548 38.8866 55.1176C45.9506 51.8329 54.4833 47.0267 60.6188 40.8912C68.3592 33.1508 72.6336 23.3414 74.9703 15.4127C76.1364 11.4558 76.814 7.98747 77.1997 5.51187C77.362 4.46975 77.4725 3.60459 77.5458 2.95418C76.8954 3.02752 76.0302 3.13796 74.9881 3.3003C72.5125 3.68595 69.0442 4.36354 65.0873 5.52968C57.1586 7.86636 47.3492 12.1408 39.6088 19.8812C33.4733 26.0167 28.6671 34.5494 25.3823 41.6134C23.7452 45.1342 22.4965 48.2668 21.6578 50.5178C21.2385 51.6429 20.922 52.5467 20.7109 53.1674C20.676 53.2702 20.6439 53.3652 20.6147 53.4522Z" fill="#525252"/>
<path id="path364-4-0 (Stroke)" fill-rule="evenodd" clip-rule="evenodd" d="M14.9045 28.3501C15.1226 28.132 15.4185 28.0095 15.7269 28.0095H30.8248V30.3356H16.2087L5.14719 41.3971C11.2078 40.1817 17.5758 40.9299 23.2489 43.6244L22.251 45.7256C15.7553 42.6405 8.26598 42.3305 1.56928 44.8262C1.05669 45.0173 0.480259 44.8253 0.184575 44.3651C-0.11111 43.9048 -0.0461248 43.3008 0.340681 42.914L14.9045 28.3501Z" fill="#525252"/>
<path id="path366-2-0 (Stroke)" fill-rule="evenodd" clip-rule="evenodd" d="M52.4905 49.6752V64.773C52.4905 65.0815 52.3679 65.3773 52.1498 65.5955L37.586 80.1593C37.1992 80.5461 36.5951 80.6111 36.1349 80.3154C35.6747 80.0197 35.4827 79.4433 35.6737 78.9307C38.1695 72.234 37.8594 64.7446 34.7744 58.249L36.8756 57.2511C39.57 62.9242 40.3183 69.2921 39.1028 75.3528L50.1643 64.2913V49.6752H52.4905Z" fill="#525252"/>
<path id="line368-4-5 (Stroke)" fill-rule="evenodd" clip-rule="evenodd" d="M74.6486 18.538L61.9619 5.85133L63.6068 4.20648L76.2935 16.8932L74.6486 18.538Z" fill="#525252"/>
<path id="circle370-5-8 (Stroke)" fill-rule="evenodd" clip-rule="evenodd" d="M57.8 17.39C54.8675 17.39 52.4902 19.7673 52.4902 22.6998C52.4902 25.6322 54.8675 28.0095 57.8 28.0095C60.7325 28.0095 63.1097 25.6322 63.1097 22.6998C63.1097 19.7673 60.7325 17.39 57.8 17.39ZM50.1641 22.6998C50.1641 18.4826 53.5828 15.0638 57.8 15.0638C62.0172 15.0638 65.4359 18.4826 65.4359 22.6998C65.4359 26.9169 62.0172 30.3357 57.8 30.3357C53.5828 30.3357 50.1641 26.9169 50.1641 22.6998Z" fill="#525252"/>
<path id="path372-7-5 (Stroke)" fill-rule="evenodd" clip-rule="evenodd" d="M13.6416 59.7516C13.7337 60.3873 13.293 60.9774 12.6573 61.0695C11.523 61.2339 10.7108 61.3606 9.89939 61.6913C9.11155 62.0124 8.26238 62.555 7.17992 63.6374C4.86806 65.9493 3.62023 69.78 2.97365 73.2205C2.65592 74.9112 2.49361 76.4493 2.41097 77.5649C2.39602 77.7667 2.3837 77.9544 2.37355 78.1264C2.54552 78.1163 2.73323 78.1039 2.93506 78.089C4.05063 78.0063 5.5888 77.844 7.27947 77.5263C10.72 76.8797 14.5506 75.6319 16.8625 73.32C17.945 72.2376 18.4875 71.3884 18.8086 70.6006C19.1393 69.7892 19.266 68.977 19.4305 67.8426C19.5226 67.2069 20.1126 66.7663 20.7483 66.8584C21.3841 66.9505 21.8247 67.5406 21.7326 68.1763L21.7303 68.192C21.5718 69.2854 21.4147 70.3696 20.9627 71.4785C20.499 72.6163 19.7551 73.7171 18.5074 74.9649C15.6733 77.7989 11.2431 79.1483 7.70912 79.8124C5.91257 80.1501 4.28513 80.3215 3.1069 80.4088C2.51695 80.4525 2.03746 80.4753 1.70313 80.4871C1.53591 80.493 1.40484 80.4962 1.31426 80.498C1.26896 80.4988 1.23377 80.4993 1.20922 80.4996L1.18045 80.4999L1.17218 80.4999L1.16959 80.4999C1.16925 80.5 1.16805 80.5 1.16308 79.3369C7.7162e-06 79.3319 9.02859e-06 79.3316 1.05959e-05 79.3313L2.95247e-05 79.3278L8.75168e-05 79.3195L0.000369882 79.2907C0.000651643 79.2662 0.0011462 79.231 0.00200945 79.1857C0.00373571 79.0951 0.00693721 78.9641 0.0128619 78.7968C0.0247076 78.4625 0.0474616 77.983 0.0911607 77.3931C0.178435 76.2148 0.349873 74.5874 0.687505 72.7908C1.35166 69.2569 2.70104 64.8266 5.53507 61.9926C6.78283 60.7448 7.8836 60.0009 9.02144 59.5372C10.1304 59.0852 11.2147 58.9281 12.3081 58.7696L12.3237 58.7674C12.9594 58.6752 13.5494 59.1159 13.6416 59.7516ZM1.16308 79.3369L1.05959e-05 79.3313C-0.00131249 79.6415 0.121321 79.94 0.340658 80.1593C0.559995 80.3786 0.857859 80.5013 1.16805 80.5L1.16308 79.3369Z" fill="#525252"/>
<path id="line374-1-5 (Stroke)" fill-rule="evenodd" clip-rule="evenodd" d="M42.4413 38.1252C42.8949 38.5801 42.8939 39.3165 42.439 39.7701L19.7841 62.3602C19.3293 62.8138 18.5929 62.8127 18.1393 62.3579C17.6857 61.903 17.6868 61.1666 18.1416 60.713L40.7965 38.1229C41.2514 37.6693 41.9878 37.6704 42.4413 38.1252Z" fill="#525252"/>
</g>
</g>
<defs>
<clipPath id="clip0_10866_464795">
<rect width="80" height="80" fill="white" transform="translate(0 0.5)"/>
</clipPath>
</defs>
</svg>
