<svg width="151" height="20" viewBox="0 0 151 20" fill="currentColor" xmlns="http://www.w3.org/2000/svg">
<g clip-path="url(#clip0_8403_87017)">
<path d="M57.8455 4.47664C53.9812 4.47664 50.775 7.30895 50.775 11.264C50.775 11.6552 50.81 12.0246 50.852 12.3868C50.481 11.4379 49.5919 10.4093 47.7437 10.0471C45.7766 9.62695 42.8994 9.40239 42.8994 8.1782C42.8994 7.27997 44.0335 7.20753 44.7405 7.20753C45.2726 7.20753 45.7486 7.30895 46.1056 7.5335C46.3016 7.65665 46.4486 7.81601 46.5467 8.02608C46.7217 8.41724 47.1277 8.64904 47.5477 8.64904H50.628C50.474 5.29518 47.4707 4.47664 44.5935 4.47664C42.0173 4.47664 38.608 5.32416 38.608 8.43173C38.608 11.916 41.9893 11.9884 44.6915 12.6621C45.4476 12.8359 46.7847 13.0388 46.7847 14.0311C46.7847 15.0525 45.6016 15.4002 44.7685 15.4002C44.1595 15.4002 43.5854 15.2481 43.1794 14.9511C42.9344 14.77 42.7384 14.531 42.6123 14.2485C42.4303 13.8211 42.0523 13.5096 41.5973 13.5096H38.377C38.503 17.117 41.6813 18.1384 44.7895 18.1384C47.7437 18.1384 51.076 16.9938 51.076 13.5386C51.9231 16.4723 54.4853 18.1384 57.9435 18.1384C60.8698 18.1384 63.677 16.8417 64.4541 13.8573H60.7788C60.5898 13.8573 60.4077 13.9515 60.3097 14.1181C59.8477 14.8932 58.9306 15.2771 57.9925 15.2771C56.1724 15.2771 55.1433 14.1108 55.0663 12.3434H64.6851C64.8881 7.96088 62.5359 4.47664 57.8455 4.47664ZM55.0663 9.97465C55.3183 8.41 56.3264 7.33792 57.8455 7.33792C59.2876 7.33792 60.3167 8.53314 60.3937 9.97465H55.0663ZM72.0006 4.47664C68.1363 4.47664 64.9301 7.30895 64.9301 11.264C64.9301 15.5886 67.8353 18.1311 72.0987 18.1311C75.0249 18.1311 77.8321 16.8345 78.6092 13.8501H74.9339C74.7449 13.8501 74.5628 13.9442 74.4648 14.1108C74.0028 14.8859 73.0857 15.2698 72.1477 15.2698C70.3275 15.2698 69.2984 14.1036 69.2214 12.3361H78.8402C79.0432 7.96088 76.698 4.47664 72.0006 4.47664ZM69.2284 9.97465C69.4804 8.41 70.4885 7.33792 72.0076 7.33792C73.4498 7.33792 74.4788 8.53314 74.5558 9.97465H69.2284ZM101.823 4.7012V6.63528C101.823 7.55523 101.095 8.30858 100.199 8.30858H100.178C98.0567 8.30858 96.9436 9.75009 96.9436 11.3654V17.7544H92.8973H92.6523H88.6059C88.0529 17.7544 87.5419 17.4647 87.2408 16.9794L84.5106 12.5534L83.6986 13.3357C83.5095 13.5168 83.4045 13.7704 83.4045 14.0384V17.7472H79.1132V0H83.4045V9.1561L87.3178 4.85331H92.2882L87.8359 9.38066C87.6399 9.58348 87.6119 9.90221 87.7659 10.134L92.6523 17.3995V4.85331H96.8176V7.11336H96.8666C97.4966 5.46903 98.9598 4.59978 100.808 4.59978C101.137 4.59978 101.494 4.62876 101.823 4.7012Z" fill="currentColor"/>
<path d="M33.1546 0.601257C33.1546 4.48391 33.1546 6.41799 31.9925 7.6277C30.8304 8.83016 28.9543 8.83016 25.202 8.83016H6.25149C6.25149 4.28833 9.81477 0.601257 14.2041 0.601257H33.1546ZM1.16209 12.9736C0 14.176 0 16.1174 0 20H18.9505C23.3398 20 26.9031 16.313 26.9031 11.7711H7.95262C4.20733 11.7711 2.33118 11.7711 1.16209 12.9736Z" fill="currentColor"/>
<path d="M103.475 4.88229H103.111V4.66498H104.091V4.88229H103.727V5.83122H103.468V4.88229H103.475Z" fill="currentColor"/>
<path d="M105.26 5.82396V5.12131L104.931 5.70081H104.812L104.483 5.14305V5.8312H104.238V4.65771H104.455L104.875 5.38209L105.288 4.65771H105.505V5.82396H105.26Z" fill="currentColor"/>
<path d="M112.261 6.39626V10.9236H118.554V12.5172H112.261V17.7617H110.469V4.78815H119.324V6.4035H112.261V6.39626Z" fill="currentColor"/>
<path d="M120.934 4.0058H122.657V17.7689H120.934V4.0058Z" fill="currentColor"/>
<path d="M124.393 12.8504C124.393 9.92393 126.493 7.84497 129.342 7.84497C132.191 7.84497 134.27 9.92393 134.27 12.8504C134.27 15.7769 132.191 17.8776 129.342 17.8776C126.493 17.8776 124.393 15.7841 124.393 12.8504ZM132.534 12.8504C132.534 10.757 131.169 9.40238 129.342 9.40238C127.515 9.40238 126.136 10.757 126.136 12.8504C126.136 14.9438 127.515 16.3202 129.342 16.3202C131.169 16.3202 132.534 14.9511 132.534 12.8504Z" fill="currentColor"/>
<path d="M150.092 7.93915L146.542 17.7689H144.89L142.146 10.3151L139.381 17.7689H137.729L134.2 7.93915H135.832L138.59 15.7624L141.46 7.93915H142.909L145.723 15.7986L148.552 7.93915H150.092Z" fill="currentColor"/>
</g>
<defs>
<clipPath id="clip0_8403_87017">
<rect width="150.092" height="20" fill="currentColor"/>
</clipPath>
</defs>
</svg>
