<svg width="32" height="32" viewBox="0 0 32 32" fill="none" xmlns="http://www.w3.org/2000/svg">
<g clip-path="url(#clip0_10938_131080)">
<rect width="32" height="32" fill="white" fill-opacity="0.01"/>
<path fill-rule="evenodd" clip-rule="evenodd" d="M6 6C4.89543 6 4 6.89543 4 8V24C4 25.1046 4.89543 26 6 26H26C27.1046 26 28 25.1046 28 24L28 8C28 6.89543 27.1046 6 26 6H6ZM7 12V23H25V12H7ZM26 8H24V10H26V8ZM20 8H22V10H20V8ZM18 8H16V10H18V8Z" fill="white"/>
</g>
<defs>
<clipPath id="clip0_10938_131080">
<rect width="32" height="32" fill="white"/>
</clipPath>
</defs>
</svg>
