<svg width="32" height="32" viewBox="0 0 32 32" fill="none" xmlns="http://www.w3.org/2000/svg">
<g clip-path="url(#clip0_18973_54304)">
<rect width="32" height="32" fill="white" fill-opacity="0.01"/>
<path d="M9 10C9.26522 10 9.51957 9.89464 9.70711 9.70711C9.89464 9.51957 10 9.26522 10 9C10 8.73478 9.89464 8.48043 9.70711 8.29289C9.51957 8.10536 9.26522 8 9 8C8.73478 8 8.48043 8.10536 8.29289 8.29289C8.10536 8.48043 8 8.73478 8 9C8 9.26522 8.10536 9.51957 8.29289 9.70711C8.48043 9.89464 8.73478 10 9 10ZM6 9C6 9.26522 5.89464 9.51957 5.70711 9.70711C5.51957 9.89464 5.26522 10 5 10C4.73478 10 4.48043 9.89464 4.29289 9.70711C4.10536 9.51957 4 9.26522 4 9C4 8.73478 4.10536 8.48043 4.29289 8.29289C4.48043 8.10536 4.73478 8 5 8C5.26522 8 5.51957 8.10536 5.70711 8.29289C5.89464 8.48043 6 8.73478 6 9ZM10 23C10 23.2652 9.89464 23.5196 9.70711 23.7071C9.51957 23.8946 9.26522 24 9 24C8.73478 24 8.48043 23.8946 8.29289 23.7071C8.10536 23.5196 8 23.2652 8 23C8 22.7348 8.10536 22.4804 8.29289 22.2929C8.48043 22.1054 8.73478 22 9 22C9.26522 22 9.51957 22.1054 9.70711 22.2929C9.89464 22.4804 10 22.7348 10 23ZM5 24C5.26522 24 5.51957 23.8946 5.70711 23.7071C5.89464 23.5196 6 23.2652 6 23C6 22.7348 5.89464 22.4804 5.70711 22.2929C5.51957 22.1054 5.26522 22 5 22C4.73478 22 4.48043 22.1054 4.29289 22.2929C4.10536 22.4804 4 22.7348 4 23C4 23.2652 4.10536 23.5196 4.29289 23.7071C4.48043 23.8946 4.73478 24 5 24Z" fill="white"/>
<path d="M4 4C2.93913 4 1.92172 4.42143 1.17157 5.17157C0.421427 5.92172 0 6.93913 0 8V10C0 11.0609 0.421427 12.0783 1.17157 12.8284C1.92172 13.5786 2.93913 14 4 14H6V18H4C2.93913 18 1.92172 18.4214 1.17157 19.1716C0.421427 19.9217 0 20.9391 0 22V24C0 25.0609 0.421427 26.0783 1.17157 26.8284C1.92172 27.5786 2.93913 28 4 28H28C29.0609 28 30.0783 27.5786 30.8284 26.8284C31.5786 26.0783 32 25.0609 32 24V22C32 20.9391 31.5786 19.9217 30.8284 19.1716C30.0783 18.4214 29.0609 18 28 18H26V14H28C29.0609 14 30.0783 13.5786 30.8284 12.8284C31.5786 12.0783 32 11.0609 32 10V8C32 6.93913 31.5786 5.92172 30.8284 5.17157C30.0783 4.42143 29.0609 4 28 4H4ZM30 8V10C30 10.5304 29.7893 11.0391 29.4142 11.4142C29.0391 11.7893 28.5304 12 28 12H4C3.46957 12 2.96086 11.7893 2.58579 11.4142C2.21071 11.0391 2 10.5304 2 10V8C2 7.46957 2.21071 6.96086 2.58579 6.58579C2.96086 6.21071 3.46957 6 4 6H28C28.5304 6 29.0391 6.21071 29.4142 6.58579C29.7893 6.96086 30 7.46957 30 8ZM30 22V24C30 24.5304 29.7893 25.0391 29.4142 25.4142C29.0391 25.7893 28.5304 26 28 26H4C3.46957 26 2.96086 25.7893 2.58579 25.4142C2.21071 25.0391 2 24.5304 2 24V22C2 21.4696 2.21071 20.9609 2.58579 20.5858C2.96086 20.2107 3.46957 20 4 20H28C28.5304 20 29.0391 20.2107 29.4142 20.5858C29.7893 20.9609 30 21.4696 30 22ZM24 14V18H8V14H24Z" fill="white"/>
</g>
<defs>
<clipPath id="clip0_18973_54304">
<rect width="32" height="32" fill="white"/>
</clipPath>
</defs>
</svg>
