<svg width="28" height="28" viewBox="0 0 28 28" fill="none" xmlns="http://www.w3.org/2000/svg">
<path fill-rule="evenodd" clip-rule="evenodd" d="M13.9997 3.49951C14.1272 3.49951 14.2532 3.52741 14.3689 3.58124L27.4939 9.70624C27.6485 9.77838 27.7786 9.89412 27.8682 10.0392C27.9579 10.1843 28.0031 10.3525 27.9985 10.523C27.9938 10.6935 27.9395 10.8589 27.842 10.9989C27.7446 11.1389 27.6084 11.2474 27.4501 11.311L26.2497 11.7922V22.749C26.7138 22.749 27.1589 22.9334 27.4871 23.2616C27.8153 23.5897 27.9997 24.0349 27.9997 24.499V27.999H22.7497V24.499C22.7497 24.0349 22.934 23.5897 23.2622 23.2616C23.5904 22.9334 24.0355 22.749 24.4997 22.749V12.494L14.3252 16.561C14.1162 16.6447 13.8831 16.6447 13.6742 16.561L0.549153 11.311C0.390896 11.2474 0.254681 11.1389 0.15726 10.9989C0.0598399 10.8589 0.00546169 10.6935 0.000813383 10.523C-0.00383492 10.3525 0.0414494 10.1843 0.131097 10.0392C0.220745 9.89412 0.350847 9.77838 0.505403 9.70624L13.6304 3.58124C13.7461 3.52741 13.8721 3.49951 13.9997 3.49951ZM3.07615 10.4377L13.9997 14.804L24.9231 10.4377L13.9997 5.33999L3.07615 10.4377Z" fill="white"/>
<path fill-rule="evenodd" clip-rule="evenodd" d="M6.95448 15.75C7.07472 15.7439 7.19494 15.7626 7.30761 15.805L13.9996 18.3145L20.6916 15.805C20.8043 15.7626 20.9245 15.7439 21.0447 15.75C21.165 15.7562 21.2827 15.7871 21.3904 15.8408C21.4982 15.8945 21.5937 15.9699 21.671 16.0622C21.7483 16.1545 21.8057 16.2618 21.8396 16.3773L22.7146 19.3523C22.7759 19.5611 22.7571 19.7854 22.662 19.9811C22.5669 20.1769 22.4022 20.3302 22.2001 20.411L14.3251 23.561C14.1162 23.6448 13.883 23.6448 13.6741 23.561L5.79911 20.411C5.59703 20.3302 5.43234 20.1769 5.33721 19.9811C5.24208 19.7854 5.22332 19.5611 5.28461 19.3523L6.15961 16.3773C6.19354 16.2618 6.25095 16.1545 6.32824 16.0622C6.40553 15.9699 6.50104 15.8945 6.60879 15.8408C6.71655 15.7871 6.83423 15.7562 6.95448 15.75ZM7.18907 19.0812L13.9996 21.804L20.8106 19.0828L20.4256 17.7738L14.3076 20.068C14.1091 20.1427 13.8902 20.1427 13.6916 20.068L7.57361 17.7738L7.18907 19.0812Z" fill="white"/>
</svg>
