<svg width="80" height="65" viewBox="0 0 80 65" fill="none" xmlns="http://www.w3.org/2000/svg">
<g id="Tutorials">
<g id="g613">
<g id="g22">
<path id="rect6 (Stroke)" fill-rule="evenodd" clip-rule="evenodd" d="M0.273438 2.33808C0.273438 1.70295 0.78831 1.18808 1.42344 1.18808H78.5765C79.2116 1.18808 79.7265 1.70295 79.7265 2.33808V55.9656C79.7265 56.6007 79.2116 57.1156 78.5765 57.1156H1.42344C0.78831 57.1156 0.273438 56.6007 0.273438 55.9656V2.33808ZM2.57344 3.48808V54.8156H77.4265V3.48808H2.57344Z" fill="#525252"/>
<path id="line8 (Stroke)" fill-rule="evenodd" clip-rule="evenodd" d="M30.584 63.6619C30.584 63.0268 31.0989 62.5119 31.734 62.5119H48.2749C48.91 62.5119 49.4249 63.0268 49.4249 63.6619C49.4249 64.2971 48.91 64.8119 48.2749 64.8119H31.734C31.0989 64.8119 30.584 64.2971 30.584 63.6619Z" fill="#525252"/>
<path id="line10 (Stroke)" fill-rule="evenodd" clip-rule="evenodd" d="M39.9996 54.8156C40.6347 54.8156 41.1496 55.3305 41.1496 55.9656V63.6619C41.1496 64.2971 40.6347 64.8119 39.9996 64.8119C39.3645 64.8119 38.8496 64.2971 38.8496 63.6619V55.9656C38.8496 55.3305 39.3645 54.8156 39.9996 54.8156Z" fill="#525252"/>
<g id="g20">
<path id="path12 (Stroke)" fill-rule="evenodd" clip-rule="evenodd" d="M41.1496 15.4325V46.2267C43.0524 45.1004 45.2926 44.2142 47.6231 43.5109C50.7858 42.5563 54.197 41.9144 57.3247 41.4813C60.4558 41.0477 63.3247 40.8205 65.4101 40.7015C66.3342 40.6488 67.1059 40.6172 67.68 40.5985V10.4384C67.037 10.3914 66.1226 10.3335 65.0134 10.288C62.7447 10.1949 59.6736 10.154 56.449 10.36C53.2156 10.5666 49.8757 11.0187 47.0497 11.8916C44.3462 12.7267 42.285 13.8944 41.1496 15.4325ZM68.83 9.37959L68.9436 8.23522C69.5319 8.29364 69.98 8.78848 69.98 9.37959V41.7212C69.98 42.3526 69.4709 42.8659 68.8396 42.8712M68.8396 42.8712L68.8371 42.8712L68.8273 42.8713L68.7858 42.8718C68.7484 42.8723 68.6919 42.8732 68.6174 42.8745C68.4683 42.8773 68.2468 42.8822 67.9611 42.8908C67.3896 42.9079 66.5614 42.9396 65.5411 42.9978C63.499 43.1143 60.6941 43.3366 57.6402 43.7595C54.5828 44.1829 51.2977 44.8043 48.2877 45.7127C45.2626 46.6258 42.5966 47.8051 40.7157 49.302C40.3702 49.5769 39.8978 49.6298 39.5001 49.438C39.1024 49.2462 38.8496 48.8437 38.8496 48.4021V15.0735C38.8496 14.8509 38.9142 14.6331 39.0356 14.4464C40.5629 12.0988 43.3335 10.6323 46.3709 9.69407C49.4408 8.74581 52.9817 8.27683 56.3023 8.06467C59.6317 7.85196 62.7877 7.89469 65.1077 7.9899C66.269 8.03756 67.224 8.09851 67.8903 8.14769C68.2235 8.17229 68.4847 8.19397 68.6637 8.20959C68.7532 8.2174 68.8221 8.22371 68.8692 8.22811L68.9233 8.23324L68.9377 8.23464L68.9436 8.23522C68.9436 8.23522 68.9436 8.23522 68.83 9.37959" fill="#525252"/>
<path id="path12 (Stroke)_2" fill-rule="evenodd" clip-rule="evenodd" d="M38.8309 15.4325V46.2267C36.9281 45.1004 34.6878 44.2142 32.3573 43.5109C29.1947 42.5563 25.7835 41.9144 22.6558 41.4813C19.5247 41.0477 16.6558 40.8205 14.5704 40.7015C13.6462 40.6488 12.8746 40.6172 12.3005 40.5985V10.4384C12.9434 10.3914 13.8578 10.3335 14.9671 10.288C17.2357 10.1949 20.3069 10.154 23.5315 10.36C26.7649 10.5666 30.1048 11.0187 32.9308 11.8916C35.6343 12.7267 37.6955 13.8944 38.8309 15.4325ZM11.1505 9.37959L11.0368 8.23522C10.4486 8.29364 10.0005 8.78848 10.0005 9.37959V41.7212C10.0005 42.3526 10.5095 42.8659 11.1409 42.8712M11.1409 42.8712L11.1433 42.8712L11.1531 42.8713L11.1947 42.8718C11.2321 42.8723 11.2885 42.8732 11.3631 42.8745C11.5122 42.8773 11.7336 42.8822 12.0194 42.8908C12.5909 42.9079 13.419 42.9396 14.4394 42.9978C16.4815 43.1143 19.2864 43.3366 22.3403 43.7595C25.3977 44.1829 28.6828 44.8043 31.6928 45.7127C34.7179 46.6258 37.3838 47.8051 39.2648 49.302C39.6102 49.5769 40.0826 49.6298 40.4803 49.438C40.8781 49.2462 41.1309 48.8437 41.1309 48.4021V15.0735C41.1309 14.8509 41.0662 14.6331 40.9448 14.4464C39.4176 12.0988 36.647 10.6323 33.6096 9.69407C30.5396 8.74581 26.9987 8.27683 23.6781 8.06467C20.3488 7.85196 17.1928 7.89469 14.8728 7.9899C13.7114 8.03756 12.7565 8.09851 12.0902 8.14769C11.7569 8.17229 11.4957 8.19397 11.3168 8.20959C11.2273 8.2174 11.1584 8.22371 11.1113 8.22811L11.0572 8.23324L11.0428 8.23464L11.0368 8.23522C11.0368 8.23522 11.0368 8.23522 11.1505 9.37959" fill="#525252"/>
<path id="polyline16 (Stroke)" fill-rule="evenodd" clip-rule="evenodd" d="M11.1695 41.1027C11.8047 41.1027 12.3195 41.6175 12.3195 42.2527V47.2521H39.9999C40.635 47.2521 41.1499 47.767 41.1499 48.4021C41.1499 49.0373 40.635 49.5521 39.9999 49.5521H11.1695C10.5344 49.5521 10.0195 49.0373 10.0195 48.4021V42.2527C10.0195 41.6175 10.5344 41.1027 11.1695 41.1027Z" fill="#525252"/>
<path id="polyline18 (Stroke)" fill-rule="evenodd" clip-rule="evenodd" d="M68.83 41C69.4651 41 69.98 41.5149 69.98 42.15V48.2995C69.98 48.9346 69.4651 49.4495 68.83 49.4495H39.9996C39.3645 49.4495 38.8496 48.9346 38.8496 48.2995C38.8496 47.6643 39.3645 47.1495 39.9996 47.1495H67.68V42.15C67.68 41.5149 68.1949 41 68.83 41Z" fill="#525252"/>
</g>
</g>
</g>
</g>
</svg>
